<?xml version="1.0" encoding="UTF-8" ?>
<!DOCTYPE svg PUBLIC "-//W3C//DTD SVG 1.1//EN" "http://www.w3.org/Graphics/SVG/1.1/DTD/svg11.dtd">
<svg width="1024pt" height="1024pt" viewBox="0 0 1024 1024" version="1.1" xmlns="http://www.w3.org/2000/svg">
<g id="#317ae4ff">
<path fill="#317ae4" opacity="1.00" d=" M 405.44 100.44 C 467.30 99.95 529.16 99.78 591.02 100.26 C 634.67 100.62 678.33 100.62 721.98 100.97 C 752.94 101.88 784.52 104.72 813.47 116.57 C 856.18 133.86 891.17 169.02 908.23 211.82 C 915.72 230.65 919.78 250.72 921.62 270.85 C 923.75 291.18 923.30 311.64 924.06 332.05 C 924.08 434.70 924.06 537.35 924.07 640.01 C 923.98 663.66 924.36 687.31 923.57 710.96 C 923.31 735.15 922.30 759.51 917.12 783.23 C 909.63 818.66 890.99 851.71 864.01 875.93 C 840.17 897.81 809.94 912.34 778.16 918.17 C 778.17 793.11 778.16 668.04 778.16 542.98 C 778.12 529.64 778.37 516.30 777.76 502.97 C 778.07 495.54 776.00 488.33 775.72 480.94 C 772.69 459.41 767.30 438.21 759.86 417.78 C 752.89 399.41 743.51 382.06 733.15 365.41 C 723.06 350.90 712.32 336.72 699.55 324.44 C 687.06 311.41 672.76 300.26 657.91 290.08 C 640.87 279.50 623.16 269.75 604.19 263.07 C 586.04 256.72 567.34 251.84 548.29 249.22 C 540.87 247.63 533.20 248.16 525.77 246.66 C 517.63 246.12 509.41 246.16 501.27 246.62 C 493.31 248.19 485.12 247.54 477.16 249.11 C 452.50 252.29 428.11 258.69 405.46 269.05 C 405.44 212.85 405.47 156.65 405.44 100.44 Z" />
<path fill="#317ae4" opacity="1.00" d=" M 181.45 132.34 C 201.25 119.07 223.94 110.44 247.35 106.18 C 247.45 218.12 247.36 330.06 247.39 441.99 C 247.25 465.32 247.79 488.67 246.85 512.00 C 246.79 517.31 247.27 522.61 247.25 527.93 C 247.08 534.70 249.04 541.26 249.25 548.01 C 252.14 568.12 257.23 587.91 264.22 606.99 C 271.10 625.01 280.40 642.00 290.62 658.32 C 300.98 673.05 311.92 687.50 324.98 699.97 C 336.79 712.35 350.49 722.69 364.33 732.64 C 379.73 742.66 396.00 751.35 412.90 758.52 C 431.94 766.01 451.81 771.31 471.98 774.63 C 478.68 775.25 485.25 777.00 492.01 776.90 C 520.58 778.61 549.35 776.38 577.17 769.60 C 591.67 765.91 606.20 761.66 619.53 754.74 C 619.58 811.17 619.52 867.59 619.56 924.02 C 523.38 923.97 427.20 924.13 331.02 923.93 C 307.00 923.38 282.89 923.60 259.05 920.20 C 243.48 918.07 228.08 914.40 213.41 908.73 C 176.80 894.38 145.30 867.22 126.17 832.82 C 114.69 813.15 108.20 790.95 104.73 768.55 C 99.88 735.93 100.91 702.86 100.71 669.99 C 100.65 616.30 99.76 562.62 99.93 508.94 C 99.95 458.28 99.90 407.63 99.95 356.98 C 101.51 323.94 99.60 290.68 104.43 257.84 C 107.03 239.47 111.73 221.27 119.51 204.38 C 132.96 175.25 154.54 149.86 181.45 132.34 Z" />
<path fill="#317ae4" opacity="1.00" d=" M 469.20 414.16 C 478.97 409.89 489.43 407.38 499.97 405.93 C 507.62 405.36 515.31 405.55 522.97 405.72 C 534.16 407.29 545.41 409.49 555.78 414.17 C 559.27 415.69 562.67 417.39 565.94 419.36 C 570.27 422.22 574.85 424.77 578.77 428.23 C 585.14 433.15 590.96 438.74 595.83 445.17 C 603.45 454.98 610.13 465.76 613.68 477.75 C 615.41 482.35 616.12 487.22 617.39 491.96 C 618.93 499.19 618.44 506.64 618.61 513.99 C 618.30 520.49 619.00 527.18 616.98 533.47 C 614.45 548.01 608.45 561.89 599.71 573.77 C 593.02 583.55 584.60 592.10 574.85 598.83 C 572.56 600.51 570.22 602.11 567.82 603.63 C 548.07 615.82 524.12 620.54 501.15 618.32 C 497.77 617.17 494.12 617.59 490.69 616.73 C 480.82 614.58 471.16 611.36 462.17 606.73 C 461.09 605.98 460.02 605.27 458.94 604.55 C 458.51 604.35 457.64 603.94 457.20 603.74 C 454.79 602.20 452.49 600.49 450.16 598.84 C 447.52 596.86 444.84 594.92 442.26 592.87 C 438.32 589.41 434.57 585.74 431.20 581.72 C 429.17 579.11 427.19 576.46 425.27 573.78 C 423.91 571.80 422.60 569.81 421.30 567.81 C 413.34 555.95 409.11 541.99 406.75 528.02 C 406.14 517.70 406.18 507.32 406.68 496.99 C 408.45 485.26 411.80 473.66 417.21 463.08 C 419.16 459.74 421.18 456.45 423.32 453.23 C 429.60 443.80 436.94 434.90 446.20 428.26 C 453.20 422.59 460.92 417.73 469.20 414.16 Z" />
</g>
<g id="#dfdfdfff">
<path fill="#dfdfdf" opacity="1.00" d=" M 247.35 106.08 C 265.06 102.87 283.03 101.70 301.00 100.98 C 335.81 100.65 370.63 100.70 405.44 100.44 C 405.47 156.65 405.44 212.85 405.46 269.05 C 428.11 258.69 452.50 252.29 477.16 249.11 C 485.12 247.54 493.31 248.19 501.27 246.62 C 509.41 246.16 517.63 246.12 525.77 246.66 C 533.20 248.16 540.87 247.63 548.29 249.22 C 567.34 251.84 586.04 256.72 604.19 263.07 C 623.16 269.75 640.87 279.50 657.91 290.08 C 672.76 300.26 687.06 311.41 699.55 324.44 C 712.32 336.72 723.06 350.90 733.15 365.41 C 743.51 382.06 752.89 399.41 759.86 417.78 C 767.30 438.21 772.69 459.41 775.72 480.94 C 776.00 488.33 778.07 495.54 777.76 502.97 C 778.37 516.30 778.12 529.64 778.16 542.98 C 778.16 668.04 778.17 793.11 778.16 918.17 C 750.43 923.58 722.07 923.35 693.94 923.92 C 669.14 924.04 644.35 924.01 619.56 924.02 C 619.52 867.59 619.58 811.17 619.53 754.74 C 606.20 761.66 591.67 765.91 577.17 769.60 C 549.35 776.38 520.58 778.61 492.01 776.90 C 485.25 777.00 478.68 775.25 471.98 774.63 C 451.81 771.31 431.94 766.01 412.90 758.52 C 396.00 751.35 379.73 742.66 364.33 732.64 C 350.49 722.69 336.79 712.35 324.98 699.97 C 311.92 687.50 300.98 673.05 290.62 658.32 C 280.40 642.00 271.10 625.01 264.22 606.99 C 257.23 587.91 252.14 568.12 249.25 548.01 C 249.04 541.26 247.08 534.70 247.25 527.93 C 247.27 522.61 246.79 517.31 246.85 512.00 C 247.79 488.67 247.25 465.32 247.39 441.99 C 247.36 330.06 247.45 218.12 247.35 106.18 L 247.35 106.08 M 469.20 414.16 C 460.92 417.73 453.20 422.59 446.20 428.26 C 436.94 434.90 429.60 443.80 423.32 453.23 C 421.18 456.45 419.16 459.74 417.21 463.08 C 411.80 473.66 408.45 485.26 406.68 496.99 C 406.18 507.32 406.14 517.70 406.75 528.02 C 409.11 541.99 413.34 555.95 421.30 567.81 C 422.60 569.81 423.91 571.80 425.27 573.78 C 427.19 576.46 429.17 579.11 431.20 581.72 C 434.57 585.74 438.32 589.41 442.26 592.87 C 444.84 594.92 447.52 596.86 450.16 598.84 C 452.49 600.49 454.79 602.20 457.20 603.74 C 457.64 603.94 458.51 604.35 458.94 604.55 C 460.02 605.27 461.09 605.98 462.17 606.73 C 471.16 611.36 480.82 614.58 490.69 616.73 C 494.12 617.59 497.77 617.17 501.15 618.32 C 524.12 620.54 548.07 615.82 567.82 603.63 C 570.22 602.11 572.56 600.51 574.85 598.83 C 584.60 592.10 593.02 583.55 599.71 573.77 C 608.45 561.89 614.45 548.01 616.98 533.47 C 619.00 527.18 618.30 520.49 618.61 513.99 C 618.44 506.64 618.93 499.19 617.39 491.96 C 616.12 487.22 615.41 482.35 613.68 477.75 C 610.13 465.76 603.45 454.98 595.83 445.17 C 590.96 438.74 585.14 433.15 578.77 428.23 C 574.85 424.77 570.27 422.22 565.94 419.36 C 562.67 417.39 559.27 415.69 555.78 414.17 C 545.41 409.49 534.16 407.29 522.97 405.72 C 515.31 405.55 507.62 405.36 499.97 405.93 C 489.43 407.38 478.97 409.89 469.20 414.16 Z" />
</g>
<g id="#00000041">
<path fill="#000000" opacity="0.25" d=" M 103.58 772.99 C 103.25 771.38 104.16 769.95 104.73 768.55 C 108.20 790.95 114.69 813.15 126.17 832.82 C 145.30 867.22 176.80 894.38 213.41 908.73 C 228.08 914.40 243.48 918.07 259.05 920.20 C 282.89 923.60 307.00 923.38 331.02 923.93 C 427.20 924.13 523.38 923.97 619.56 924.02 C 644.35 924.01 669.14 924.04 693.94 923.92 C 722.07 923.35 750.43 923.58 778.16 918.17 C 809.94 912.34 840.17 897.81 864.01 875.93 C 890.99 851.71 909.63 818.66 917.12 783.23 C 917.88 784.65 918.84 786.15 918.16 787.84 C 914.66 804.39 909.70 820.71 902.02 835.83 C 893.41 852.21 882.49 867.39 869.51 880.59 C 848.06 901.05 821.94 917.09 793.06 924.45 C 781.16 927.44 769.22 930.53 756.95 931.53 C 750.00 932.53 742.97 932.44 736.03 933.36 C 727.84 934.03 719.61 933.09 711.43 933.84 C 703.33 935.06 695.13 934.34 686.98 934.53 C 564.98 934.53 442.98 934.52 320.98 934.54 C 316.98 934.49 313.05 933.61 309.06 933.57 C 300.32 933.40 291.53 934.09 282.85 932.82 C 264.69 931.73 246.54 929.29 229.06 924.11 C 194.71 914.36 163.49 893.62 141.36 865.58 C 129.25 849.98 118.99 832.70 113.06 813.78 C 108.34 800.60 105.63 786.80 103.58 772.99 Z" />
</g>
</svg>
