<?xml version="1.0" standalone="no"?><!-- Generator: Gravit.io --><svg xmlns="http://www.w3.org/2000/svg" xmlns:xlink="http://www.w3.org/1999/xlink" style="isolation:isolate" viewBox="0 0 24 24" width="24" height="24"><defs><clipPath id="_clipPath_wJemVkh0c5GIMPLTafAkqWwPDzaOw2AU"><rect width="24" height="24"/></clipPath></defs><g clip-path="url(#_clipPath_wJemVkh0c5GIMPLTafAkqWwPDzaOw2AU)"><path d=" M 7.5 16.5 L 10.38 10.38 L 16.5 7.5 L 13.62 13.62 L 7.5 16.5 Z  M 12 11.19 C 11.785 11.19 11.579 11.275 11.427 11.427 C 11.275 11.579 11.19 11.785 11.19 12 C 11.19 12.215 11.275 12.421 11.427 12.573 C 11.579 12.725 11.785 12.81 12 12.81 C 12.215 12.81 12.421 12.725 12.573 12.573 C 12.725 12.421 12.81 12.215 12.81 12 C 12.81 11.785 12.725 11.579 12.573 11.427 C 12.421 11.275 12.215 11.19 12 11.19 Z  M 12 3 C 16.971 3 21 7.029 21 12 C 21 16.971 16.971 21 12 21 C 7.029 21 3 16.971 3 12 C 3 7.029 7.029 3 12 3 Z  M 12 4.8 C 8.024 4.8 4.8 8.024 4.8 12 C 4.8 15.976 8.024 19.2 12 19.2 C 15.976 19.2 19.2 15.976 19.2 12 C 19.2 8.024 15.976 4.8 12 4.8 Z " fill="#f8f8f8"/></g></svg>