<?xml version="1.0" encoding="UTF-8"?>
<!--Generator: Apple Native CoreSVG 175.5-->
<!DOCTYPE svg
PUBLIC "-//W3C//DTD SVG 1.1//EN"
       "http://www.w3.org/Graphics/SVG/1.1/DTD/svg11.dtd">
<svg version="1.1" xmlns="http://www.w3.org/2000/svg" xmlns:xlink="http://www.w3.org/1999/xlink" width="19.9219" height="19.9316">
 <g>
  <rect height="19.9316" opacity="0" width="19.9219" x="0" y="0"/>
  <path d="M9.96094 19.9219C15.4102 19.9219 19.9219 15.4004 19.9219 9.96094C19.9219 4.51172 15.4004 0 9.95117 0C4.51172 0 0 4.51172 0 9.96094C0 15.4004 4.52148 19.9219 9.96094 19.9219ZM9.96094 18.2617C5.35156 18.2617 1.66992 14.5703 1.66992 9.96094C1.66992 5.35156 5.3418 1.66016 9.95117 1.66016C14.5605 1.66016 18.2617 5.35156 18.2617 9.96094C18.2617 14.5703 14.5703 18.2617 9.96094 18.2617ZM9.96094 15.0586C12.7539 15.0586 15.0781 12.7344 15.0781 9.95117C15.0781 8.55469 14.4531 7.1582 13.4082 6.20117C12.7344 5.57617 11.8262 6.5332 12.5098 7.17773C13.2812 7.89062 13.7207 8.87695 13.7305 9.95117C13.7305 12.0508 12.0605 13.7207 9.96094 13.7207C7.86133 13.7207 6.20117 12.0508 6.20117 9.95117C6.20117 8.87695 6.63086 7.89062 7.41211 7.16797C8.0957 6.52344 7.1875 5.56641 6.52344 6.20117C5.46875 7.14844 4.84375 8.53516 4.84375 9.95117C4.84375 12.7344 7.16797 15.0586 9.96094 15.0586ZM9.96094 10.1758C10.3418 10.1758 10.6152 9.89258 10.6152 9.50195L10.6152 5.23438C10.6152 4.84375 10.3418 4.57031 9.96094 4.57031C9.58008 4.57031 9.31641 4.84375 9.31641 5.23438L9.31641 9.50195C9.31641 9.89258 9.58008 10.1758 9.96094 10.1758Z" fill="#ffffff" fill-opacity="0.85"/>
 </g>
</svg>
