<?xml version="1.0" encoding="UTF-8"?>
<!--Generator: Apple Native CoreSVG 175.5-->
<!DOCTYPE svg
PUBLIC "-//W3C//DTD SVG 1.1//EN"
       "http://www.w3.org/Graphics/SVG/1.1/DTD/svg11.dtd">
<svg version="1.1" xmlns="http://www.w3.org/2000/svg" xmlns:xlink="http://www.w3.org/1999/xlink" width="19.9219" height="19.9316">
 <g>
  <rect height="19.9316" opacity="0" width="19.9219" x="0" y="0"/>
  <path d="M9.96094 19.9316C15.4102 19.9316 19.9219 15.4199 19.9219 9.9707C19.9219 4.53125 15.4004 0.00976562 9.95117 0.00976562C4.51172 0.00976562 0 4.53125 0 9.9707C0 15.4199 4.52148 19.9316 9.96094 19.9316ZM7.8125 7.87109C6.83594 7.87109 6.05469 7.07031 6.05469 6.11328C6.05469 5.15625 6.8457 4.36523 7.8125 4.36523C8.75977 4.36523 9.56055 5.15625 9.56055 6.11328C9.56055 7.07031 8.75977 7.87109 7.8125 7.87109ZM12.1094 7.87109C11.1621 7.87109 10.3613 7.07031 10.3613 6.11328C10.3613 5.15625 11.1621 4.36523 12.1094 4.36523C13.0762 4.36523 13.8672 5.15625 13.8672 6.11328C13.8672 7.07031 13.0762 7.87109 12.1094 7.87109ZM5.66406 11.7285C4.69727 11.7285 3.90625 10.918 3.90625 9.9707C3.90625 9.02344 4.70703 8.22266 5.66406 8.22266C6.62109 8.22266 7.41211 9.02344 7.41211 9.9707C7.41211 10.9277 6.62109 11.7285 5.66406 11.7285ZM9.96094 11.7285C9.01367 11.7285 8.21289 10.9277 8.21289 9.9707C8.21289 9.02344 9.01367 8.22266 9.96094 8.22266C10.918 8.22266 11.7188 9.02344 11.7188 9.9707C11.7188 10.9277 10.918 11.7285 9.96094 11.7285ZM14.2578 11.7285C13.3105 11.7285 12.5195 10.9277 12.5195 9.9707C12.5195 9.02344 13.3105 8.22266 14.2578 8.22266C15.2246 8.22266 16.0254 9.02344 16.0254 9.9707C16.0254 10.9277 15.2246 11.7285 14.2578 11.7285ZM7.8125 15.5762C6.83594 15.5762 6.05469 14.7754 6.05469 13.8281C6.05469 12.8711 6.8457 12.0703 7.8125 12.0703C8.75977 12.0703 9.56055 12.8711 9.56055 13.8281C9.56055 14.7852 8.75977 15.5762 7.8125 15.5762ZM12.1094 15.5762C11.1621 15.5762 10.3613 14.7852 10.3613 13.8281C10.3613 12.8711 11.1621 12.0703 12.1094 12.0703C13.0762 12.0703 13.8672 12.8711 13.8672 13.8281C13.8672 14.7852 13.0762 15.5762 12.1094 15.5762Z" fill="#ffffff" fill-opacity="0.85"/>
 </g>
</svg>
