<?xml version="1.0" encoding="UTF-8"?>
<!--Generator: Apple Native CoreSVG 175.5-->
<!DOCTYPE svg
PUBLIC "-//W3C//DTD SVG 1.1//EN"
       "http://www.w3.org/Graphics/SVG/1.1/DTD/svg11.dtd">
<svg version="1.1" xmlns="http://www.w3.org/2000/svg" xmlns:xlink="http://www.w3.org/1999/xlink" width="20.9961" height="18.1738">
 <g>
  <rect height="18.1738" opacity="0" width="20.9961" x="0" y="0"/>
  <path d="M0 17.4023C0 17.8711 0.3125 18.1738 0.78125 18.1738L20.2051 18.1738C20.6348 18.1738 20.9961 17.832 20.9961 17.3926C20.9961 16.9629 20.6348 16.6113 20.2051 16.6113L1.8457 16.6113C1.64062 16.6113 1.57227 16.543 1.57227 16.3379L1.57227 0.898438C1.57227 0.478516 1.2207 0.117188 0.791016 0.117188C0.351562 0.117188 0 0.478516 0 0.898438ZM1.02539 11.3281L7.30469 7.69531L11.8262 11.5723L19.8633 6.78711L19.248 5.79102L11.9043 10.166L7.40234 6.30859L1.02539 9.99023ZM7.17773 9.01367C8.13477 9.01367 8.91602 8.23242 8.91602 7.27539C8.91602 6.31836 8.13477 5.54688 7.17773 5.54688C6.2207 5.54688 5.43945 6.31836 5.43945 7.27539C5.43945 8.23242 6.2207 9.01367 7.17773 9.01367ZM11.7871 12.5977C12.7441 12.5977 13.5156 11.8164 13.5156 10.8594C13.5156 9.90234 12.7441 9.13086 11.7871 9.13086C10.8301 9.13086 10.0488 9.90234 10.0488 10.8594C10.0488 11.8164 10.8301 12.5977 11.7871 12.5977ZM19.1504 8.1543C20.1074 8.1543 20.8887 7.37305 20.8887 6.41602C20.8887 5.45898 20.1074 4.67773 19.1504 4.67773C18.1934 4.67773 17.4121 5.45898 17.4121 6.41602C17.4121 7.37305 18.1934 8.1543 19.1504 8.1543Z" fill="#ffffff" fill-opacity="0.85"/>
 </g>
</svg>
