<?xml version="1.0" encoding="UTF-8"?>
<!--Generator: Apple Native CoreSVG 175.5-->
<!DOCTYPE svg
PUBLIC "-//W3C//DTD SVG 1.1//EN"
       "http://www.w3.org/Graphics/SVG/1.1/DTD/svg11.dtd">
<svg version="1.1" xmlns="http://www.w3.org/2000/svg" xmlns:xlink="http://www.w3.org/1999/xlink" width="20.4688" height="18.6621">
 <g>
  <rect height="18.6621" opacity="0" width="20.4688" x="0" y="0"/>
  <path d="M2.66602 18.5547L17.8027 18.5547C19.4629 18.5547 20.4688 17.4023 20.4688 15.9082C20.4688 15.4492 20.332 14.9707 20.0879 14.541L12.5098 1.33789C12.002 0.449219 11.1328 0 10.2344 0C9.33594 0 8.45703 0.449219 7.95898 1.33789L0.380859 14.541C0.117188 14.9805 0 15.4492 0 15.9082C0 17.4023 1.00586 18.5547 2.66602 18.5547ZM10.2441 12.0312C9.73633 12.0312 9.45312 11.7383 9.44336 11.2207L9.31641 5.9082C9.30664 5.39062 9.6875 5.01953 10.2344 5.01953C10.7617 5.01953 11.1719 5.40039 11.1621 5.91797L11.0156 11.2207C11.0059 11.748 10.7227 12.0312 10.2441 12.0312ZM10.2441 15.3027C9.6582 15.3027 9.15039 14.834 9.15039 14.2578C9.15039 13.6719 9.64844 13.2031 10.2441 13.2031C10.8301 13.2031 11.3281 13.6621 11.3281 14.2578C11.3281 14.8438 10.8203 15.3027 10.2441 15.3027Z" fill="#ffffff" fill-opacity="0.85"/>
 </g>
</svg>
