<?xml version="1.0" encoding="UTF-8"?>
<!--Generator: Apple Native CoreSVG 175.5-->
<!DOCTYPE svg
PUBLIC "-//W3C//DTD SVG 1.1//EN"
       "http://www.w3.org/Graphics/SVG/1.1/DTD/svg11.dtd">
<svg version="1.1" xmlns="http://www.w3.org/2000/svg" xmlns:xlink="http://www.w3.org/1999/xlink" width="21.1621" height="17.998">
 <g>
  <rect height="17.998" opacity="0" width="21.1621" x="0" y="0"/>
  <path d="M18.0957 17.998C20.1367 17.998 21.1621 16.9922 21.1621 14.9707L21.1621 3.04688C21.1621 1.02539 20.1367 0.0195312 18.0957 0.0195312L9.60938 0.0195312C8.4668 0.0195312 7.48047 0.3125 6.67969 1.16211L0.927734 7.13867C0.292969 7.79297 0 8.37891 0 8.99414C0 9.59961 0.283203 10.1953 0.927734 10.8496L6.68945 16.7969C7.5 17.6367 8.47656 17.9883 9.61914 17.9883ZM18.0762 16.4258L9.58984 16.4258C8.84766 16.4258 8.38867 16.25 7.87109 15.7227L2.14844 9.81445C1.81641 9.47266 1.71875 9.23828 1.71875 8.99414C1.71875 8.74023 1.82617 8.50586 2.14844 8.16406L7.86133 2.23633C8.36914 1.71875 8.84766 1.5918 9.58008 1.5918L18.0762 1.5918C19.0527 1.5918 19.5898 2.10938 19.5898 3.125L19.5898 14.8926C19.5898 15.9082 19.0527 16.4258 18.0762 16.4258ZM9.04297 13.1348C9.25781 13.1348 9.45312 13.0469 9.59961 12.8906L12.373 10.1074L15.1465 12.8906C15.293 13.0371 15.4883 13.1348 15.7129 13.1348C16.1426 13.1348 16.4941 12.7734 16.4941 12.3438C16.4941 12.1191 16.4062 11.9336 16.2598 11.7871L13.4863 9.01367L16.2695 6.2207C16.4258 6.05469 16.5039 5.88867 16.5039 5.67383C16.5039 5.23438 16.1523 4.89258 15.7227 4.89258C15.5176 4.89258 15.3418 4.96094 15.1758 5.12695L12.373 7.91992L9.58008 5.13672C9.43359 4.98047 9.25781 4.91211 9.04297 4.91211C8.61328 4.91211 8.26172 5.24414 8.26172 5.68359C8.26172 5.89844 8.33984 6.08398 8.49609 6.23047L11.2695 9.01367L8.49609 11.7969C8.33984 11.9336 8.26172 12.1289 8.26172 12.3438C8.26172 12.7734 8.61328 13.1348 9.04297 13.1348Z" fill="#ffffff" fill-opacity="0.85"/>
 </g>
</svg>
