<?xml version="1.0" standalone="no"?><!-- Generator: Gravit.io --><svg xmlns="http://www.w3.org/2000/svg" xmlns:xlink="http://www.w3.org/1999/xlink" style="isolation:isolate" viewBox="0 0 22 22" width="22" height="22"><defs><clipPath id="_clipPath_8Gf73OITA19SRT3KPORrnn6WGiHUj758"><rect width="22" height="22"/></clipPath></defs><g clip-path="url(#_clipPath_8Gf73OITA19SRT3KPORrnn6WGiHUj758)"><path d=" M 10.996 3 C 10.202 3 9.576 3.684 9.576 4.488 L 9.576 12.674 C 9.576 13.478 10.201 14.164 10.996 14.164 C 11.792 14.164 12.418 13.478 12.418 12.674 L 12.418 4.488 C 12.418 3.684 11.791 3 10.996 3 Z  M 11 15.271 C 10.501 15.271 10.032 15.464 9.68 15.816 C 9.328 16.168 9.135 16.635 9.135 17.135 C 9.135 17.635 9.328 18.103 9.68 18.455 C 10.032 18.807 10.501 19 11 19 C 11.499 19 11.968 18.807 12.32 18.455 C 12.672 18.103 12.865 17.635 12.865 17.135 C 12.865 16.635 12.672 16.168 12.32 15.816 C 11.968 15.464 11.499 15.271 11 15.271 Z " fill="#f8f8f8"/></g></svg>