<?xml version="1.0" encoding="UTF-8" ?>
<!DOCTYPE svg PUBLIC "-//W3C//DTD SVG 1.1//EN" "http://www.w3.org/Graphics/SVG/1.1/DTD/svg11.dtd">
<svg width="1024pt" height="1024pt" viewBox="0 0 1024 1024" version="1.1" xmlns="http://www.w3.org/2000/svg">
<g id="#1f6adaff">
<path fill="#1f6ada" opacity="1.00" d=" M 176.28 65.22 C 181.35 60.53 188.24 58.43 195.01 57.98 C 215.47 58.05 235.92 57.96 256.38 58.04 C 256.42 191.68 256.36 325.31 256.36 458.95 C 256.25 475.97 256.70 493.00 255.86 510.01 C 255.62 515.37 256.11 520.72 256.20 526.08 C 255.90 533.15 258.21 539.96 258.18 547.03 C 259.69 557.00 261.76 566.90 263.90 576.77 C 264.60 578.71 265.22 580.69 265.86 582.67 C 268.06 589.71 270.61 596.64 272.73 603.71 C 272.97 603.99 273.45 604.54 273.69 604.82 C 282.42 627.23 294.86 648.16 309.86 666.93 C 318.52 678.25 328.80 688.20 339.14 697.98 C 359.31 715.86 382.38 730.38 407.10 741.14 C 408.75 741.81 410.40 742.53 412.05 743.25 C 420.66 746.38 429.37 749.25 438.06 752.14 C 446.96 754.21 455.92 756.02 464.91 757.67 C 471.02 757.80 476.89 759.89 483.01 759.85 C 495.33 760.58 507.69 760.62 520.01 759.90 C 527.09 759.99 533.93 757.78 541.02 757.74 C 551.37 755.85 561.85 754.34 571.98 751.41 C 582.66 747.90 593.51 744.65 603.50 739.40 C 603.55 814.97 603.48 890.54 603.51 966.11 C 467.35 966.19 331.19 966.10 195.03 966.16 C 187.70 965.86 179.79 964.06 174.71 958.35 C 169.93 953.52 168.44 946.56 167.94 940.02 C 167.94 655.66 167.92 371.29 167.95 86.93 C 167.97 79.05 170.43 70.77 176.28 65.22 Z" />
<path fill="#1f6ada" opacity="1.00" d=" M 404.45 58.06 C 464.63 57.96 524.82 58.05 585.00 58.02 C 590.74 58.47 596.60 58.85 602.02 61.04 C 602.02 61.50 602.03 62.42 602.03 62.88 C 602.03 120.60 601.98 178.32 602.00 236.04 C 602.11 252.15 601.78 268.27 602.18 284.37 L 601.82 286.10 C 599.24 285.10 596.71 284.00 594.26 282.75 C 593.28 282.51 592.31 282.28 591.34 282.05 C 583.63 278.17 575.19 275.91 566.94 273.41 C 557.25 270.33 547.18 268.74 537.17 267.14 C 531.54 265.74 525.69 266.18 519.99 265.34 C 512.11 263.60 503.98 264.55 495.99 264.38 C 490.34 265.07 484.73 266.03 479.02 266.04 C 472.21 266.02 465.68 268.06 458.94 268.67 C 445.42 270.53 432.39 274.77 419.49 279.12 C 414.38 280.86 409.67 283.62 404.44 285.04 C 404.48 209.38 404.39 133.72 404.45 58.06 Z" />
<path fill="#1f6ada" opacity="1.00" d=" M 647.23 312.00 C 715.22 312.01 783.21 311.99 851.20 311.96 C 851.64 311.96 852.52 311.97 852.96 311.97 C 855.33 318.02 855.79 324.59 856.05 331.01 C 856.10 532.34 856.04 733.67 856.08 935.00 C 856.28 943.34 855.12 952.72 848.82 958.83 C 843.74 964.18 836.12 965.86 829.02 966.16 C 803.41 966.10 777.79 966.19 752.18 966.11 C 752.19 829.74 752.16 693.38 752.15 557.01 C 752.01 539.67 752.49 522.31 751.76 504.98 C 751.71 501.35 751.81 497.68 750.96 494.12 C 749.69 488.61 750.26 482.87 748.96 477.37 C 748.41 474.92 747.91 472.47 747.60 469.99 C 745.40 454.19 739.86 439.16 735.16 424.00 C 731.37 416.50 728.67 408.49 724.65 401.10 C 710.32 372.31 690.10 346.42 665.46 325.75 C 659.45 321.05 653.86 315.84 647.23 312.00 Z" />
<path fill="#1f6ada" opacity="1.00" d=" M 485.08 414.65 C 488.85 414.70 492.25 412.65 496.03 412.79 C 502.05 412.71 508.09 412.53 514.11 412.94 C 517.73 413.75 521.29 414.81 525.05 414.85 C 531.29 416.94 537.90 418.03 543.92 420.84 C 551.27 424.84 559.12 428.15 565.40 433.83 C 574.21 439.92 580.87 448.42 587.18 456.95 C 588.96 459.46 589.90 462.45 591.73 464.95 C 592.65 467.37 594.05 469.54 595.32 471.80 C 597.64 476.66 598.78 481.97 600.39 487.09 C 603.75 494.59 603.22 503.00 603.51 511.03 C 603.39 518.55 603.62 526.21 601.96 533.59 C 598.91 540.10 598.35 547.55 594.81 553.85 C 588.15 569.30 577.02 582.58 563.66 592.70 C 559.70 596.03 554.85 597.99 550.65 600.96 C 545.10 604.01 539.08 606.15 532.97 607.74 C 530.74 608.69 528.44 609.46 526.00 609.58 C 522.24 612.25 517.05 610.17 513.03 612.29 C 507.01 612.70 500.96 612.71 494.95 612.29 C 490.93 610.18 485.77 612.25 482.02 609.56 C 480.32 609.32 478.61 609.10 476.92 608.85 C 476.65 608.60 476.11 608.08 475.84 607.82 C 470.66 606.71 465.61 604.99 460.85 602.68 C 450.73 597.51 440.90 591.27 433.25 582.76 C 425.71 575.75 419.64 567.16 415.24 557.87 C 414.00 556.85 413.77 555.21 413.24 553.80 C 410.51 549.00 409.35 543.45 408.07 538.13 C 407.82 537.89 407.32 537.40 407.07 537.16 C 406.48 534.18 407.03 530.84 405.32 528.18 C 404.14 519.53 404.48 510.74 404.76 502.03 C 404.92 496.91 405.63 491.79 407.59 487.03 C 409.51 481.82 410.36 476.17 413.03 471.22 C 416.96 464.45 419.92 457.03 425.30 451.21 C 431.78 441.99 440.65 434.85 449.83 428.48 C 458.52 423.80 467.12 418.36 477.00 416.65 C 479.75 416.16 482.20 414.51 485.08 414.65 Z" />
</g>
<g id="#d1d1d1ff">
<path fill="#d1d1d1" opacity="1.00" d=" M 256.38 58.04 C 305.74 57.99 355.10 57.98 404.45 58.06 C 404.39 133.72 404.48 209.38 404.44 285.04 C 409.67 283.62 414.38 280.86 419.49 279.12 C 432.39 274.77 445.42 270.53 458.94 268.67 C 465.68 268.06 472.21 266.02 479.02 266.04 C 484.73 266.03 490.34 265.07 495.99 264.38 C 503.98 264.55 512.11 263.60 519.99 265.34 C 525.69 266.18 531.54 265.74 537.17 267.14 C 547.18 268.74 557.25 270.33 566.94 273.41 C 575.19 275.91 583.63 278.17 591.34 282.05 C 592.31 282.28 593.28 282.51 594.26 282.75 C 596.71 284.00 599.24 285.10 601.82 286.10 L 602.18 284.37 C 603.18 293.44 607.64 302.39 615.64 307.20 C 625.07 313.10 636.62 311.89 647.23 312.00 C 653.86 315.84 659.45 321.05 665.46 325.75 C 690.10 346.42 710.32 372.31 724.65 401.10 C 728.67 408.49 731.37 416.50 735.16 424.00 C 739.86 439.16 745.40 454.19 747.60 469.99 C 747.91 472.47 748.41 474.92 748.96 477.37 C 750.26 482.87 749.69 488.61 750.96 494.12 C 751.81 497.68 751.71 501.35 751.76 504.98 C 752.49 522.31 752.01 539.67 752.15 557.01 C 752.16 693.38 752.19 829.74 752.18 966.11 C 702.62 966.07 653.07 966.07 603.51 966.11 C 603.48 890.54 603.55 814.97 603.50 739.40 C 593.51 744.65 582.66 747.90 571.98 751.41 C 561.85 754.34 551.37 755.85 541.02 757.74 C 533.93 757.78 527.09 759.99 520.01 759.90 C 507.69 760.62 495.33 760.58 483.01 759.85 C 476.89 759.89 471.02 757.80 464.91 757.67 C 455.92 756.02 446.96 754.21 438.06 752.14 C 429.37 749.25 420.66 746.38 412.05 743.25 C 410.40 742.53 408.75 741.81 407.10 741.14 C 382.38 730.38 359.31 715.86 339.14 697.98 C 328.80 688.20 318.52 678.25 309.86 666.93 C 294.86 648.16 282.42 627.23 273.69 604.82 C 273.45 604.54 272.97 603.99 272.73 603.71 C 270.61 596.64 268.06 589.71 265.86 582.67 C 265.22 580.69 264.60 578.71 263.90 576.77 C 261.76 566.90 259.69 557.00 258.18 547.03 C 258.21 539.96 255.90 533.15 256.20 526.08 C 256.11 520.72 255.62 515.37 255.86 510.01 C 256.70 493.00 256.25 475.97 256.36 458.95 C 256.36 325.31 256.42 191.68 256.38 58.04 M 485.08 414.65 C 482.20 414.51 479.75 416.16 477.00 416.65 C 467.12 418.36 458.52 423.80 449.83 428.48 C 440.65 434.85 431.78 441.99 425.30 451.21 C 419.92 457.03 416.96 464.45 413.03 471.22 C 410.36 476.17 409.51 481.82 407.59 487.03 C 405.63 491.79 404.92 496.91 404.76 502.03 C 404.48 510.74 404.14 519.53 405.32 528.18 C 407.03 530.84 406.48 534.18 407.07 537.16 C 407.32 537.40 407.82 537.89 408.07 538.13 C 409.35 543.45 410.51 549.00 413.24 553.80 C 413.77 555.21 414.00 556.85 415.24 557.87 C 419.64 567.16 425.71 575.75 433.25 582.76 C 440.90 591.27 450.73 597.51 460.85 602.68 C 465.61 604.99 470.66 606.71 475.84 607.82 C 476.11 608.08 476.65 608.60 476.92 608.85 C 478.61 609.10 480.32 609.32 482.02 609.56 C 485.77 612.25 490.93 610.18 494.95 612.29 C 500.96 612.71 507.01 612.70 513.03 612.29 C 517.05 610.17 522.24 612.25 526.00 609.58 C 528.44 609.46 530.74 608.69 532.97 607.74 C 539.08 606.15 545.10 604.01 550.65 600.96 C 554.85 597.99 559.70 596.03 563.66 592.70 C 577.02 582.58 588.15 569.30 594.81 553.85 C 598.35 547.55 598.91 540.10 601.96 533.59 C 603.62 526.21 603.39 518.55 603.51 511.03 C 603.22 503.00 603.75 494.59 600.39 487.09 C 598.78 481.97 597.64 476.66 595.32 471.80 C 594.05 469.54 592.65 467.37 591.73 464.95 C 589.90 462.45 588.96 459.46 587.18 456.95 C 580.87 448.42 574.21 439.92 565.40 433.83 C 559.12 428.15 551.27 424.84 543.92 420.84 C 537.90 418.03 531.29 416.94 525.05 414.85 C 521.29 414.81 517.73 413.75 514.11 412.94 C 508.09 412.53 502.05 412.71 496.03 412.79 C 492.25 412.65 488.85 414.70 485.08 414.65 Z" />
</g>
<g id="#f1f1f1ff">
<path fill="#f1f1f1" opacity="1.00" d=" M 602.03 62.88 C 616.83 68.99 627.36 81.49 638.57 92.38 C 702.25 156.03 765.96 219.65 829.64 283.31 C 838.13 291.75 846.62 300.69 851.20 311.96 C 783.21 311.99 715.22 312.01 647.23 312.00 C 636.62 311.89 625.07 313.10 615.64 307.20 C 607.64 302.39 603.18 293.44 602.18 284.37 C 601.78 268.27 602.11 252.15 602.00 236.04 C 601.98 178.32 602.03 120.60 602.03 62.88 Z" />
</g>
</svg>
