<?xml version="1.0" standalone="no"?><!-- Generator: Gravit.io --><svg xmlns="http://www.w3.org/2000/svg" xmlns:xlink="http://www.w3.org/1999/xlink" style="isolation:isolate" viewBox="0 0 22 22" width="22" height="22"><defs><clipPath id="_clipPath_BX7rGiKupyp4eH01njn0Qwtu1XaaSarh"><rect width="22" height="22"/></clipPath></defs><g clip-path="url(#_clipPath_BX7rGiKupyp4eH01njn0Qwtu1XaaSarh)"><path d=" M 19 10.079 L 18.998 10.079 C 18.997 9.676 18.848 9.275 18.551 8.965 C 17.958 8.345 16.952 8.349 16.363 8.973 L 11.013 14.641 L 5.627 9.014 C 5.034 8.394 4.027 8.396 3.439 9.02 C 2.849 9.643 2.855 10.634 3.448 11.253 L 9.799 17.888 L 9.934 18.029 L 9.934 18.031 C 10.231 18.341 10.631 18.501 11.029 18.5 C 11.427 18.498 11.826 18.335 12.12 18.023 L 18.561 11.196 L 18.559 11.196 C 18.853 10.884 19.001 10.482 19 10.079 Z  M 13.492 6.001 C 13.492 4.624 12.369 3.5 10.994 3.5 C 9.619 3.5 8.496 4.624 8.496 6.001 C 8.496 7.378 9.619 8.502 10.994 8.502 C 12.369 8.502 13.492 7.378 13.492 6.001 Z " fill="#f8f8f8"/></g></svg>