<?xml version="1.0" encoding="UTF-8"?>
<!--Generator: Apple Native CoreSVG 175.5-->
<!DOCTYPE svg
PUBLIC "-//W3C//DTD SVG 1.1//EN"
       "http://www.w3.org/Graphics/SVG/1.1/DTD/svg11.dtd">
<svg version="1.1" xmlns="http://www.w3.org/2000/svg" xmlns:xlink="http://www.w3.org/1999/xlink" width="15.9766" height="19.7168">
 <g>
  <rect height="19.7168" opacity="0" width="15.9766" x="0" y="0"/>
  <path d="M8.92578 5.41016C8.92578 4.9707 9.35547 4.84375 9.67773 5.05859L12.1582 6.74805C12.4609 6.95312 12.4707 7.34375 12.1875 7.5293L9.6875 9.22852C9.35547 9.44336 8.92578 9.30664 8.92578 8.85742L8.92578 7.79297L3.99414 7.79297C3.63281 7.79297 3.33008 7.5 3.33008 7.13867C3.33008 6.77734 3.63281 6.47461 3.99414 6.47461L8.92578 6.47461ZM3.54492 12.6758C3.26172 12.4805 3.26172 12.0898 3.56445 11.8848L6.05469 10.1953C6.36719 9.99023 6.80664 10.1172 6.80664 10.5469L6.80664 11.6211L11.7383 11.6211C12.0996 11.6211 12.3926 11.9238 12.3926 12.2852C12.3926 12.6465 12.0996 12.9395 11.7383 12.9395L6.80664 12.9395L6.80664 14.0039C6.80664 14.4434 6.36719 14.5801 6.04492 14.375ZM7.98828 19.7168C8.14453 19.7168 8.38867 19.6582 8.63281 19.5312C14.1895 16.6211 15.9766 15.166 15.9766 11.6602L15.9766 4.29688C15.9766 3.29102 15.5469 2.96875 14.7266 2.62695C13.584 2.1582 9.93164 0.830078 8.79883 0.439453C8.53516 0.351562 8.26172 0.302734 7.98828 0.302734C7.71484 0.302734 7.44141 0.361328 7.1875 0.439453C6.04492 0.810547 2.39258 2.16797 1.25 2.62695C0.439453 2.95898 0 3.29102 0 4.29688L0 11.6602C0 15.166 1.88477 16.4551 7.34375 19.5312C7.59766 19.668 7.83203 19.7168 7.98828 19.7168Z" fill="#ffffff" fill-opacity="0.85"/>
 </g>
</svg>
