<?xml version="1.0" encoding="UTF-8"?>
<!--Generator: Apple Native CoreSVG 175.5-->
<!DOCTYPE svg
PUBLIC "-//W3C//DTD SVG 1.1//EN"
       "http://www.w3.org/Graphics/SVG/1.1/DTD/svg11.dtd">
<svg version="1.1" xmlns="http://www.w3.org/2000/svg" xmlns:xlink="http://www.w3.org/1999/xlink" width="23.0359" height="20.9204">
 <g>
  <rect height="20.9204" opacity="0" width="23.0359" x="0" y="0"/>
  <path d="M1.76636 18.9807C4.13941 21.3538 7.46948 21.344 9.7937 19.0002L11.9128 16.8811C11.7761 16.0999 11.7859 15.2991 11.9812 14.4885C11.8542 14.6838 11.698 14.8694 11.5222 15.0452L8.75855 17.7991C7.05933 19.4983 4.65698 19.5081 2.948 17.8088C1.23902 16.0901 1.24878 13.6877 2.948 11.9885L4.86206 10.0745C4.58862 9.45923 4.52027 8.72681 4.62769 8.09204L1.75659 10.9534C-0.577391 13.2971-0.596922 16.6174 1.76636 18.9807ZM9.17847 7.67212C10.4675 7.77954 11.3074 8.1604 11.9421 8.79517C12.8796 9.73267 13.28 10.885 13.1433 11.9983C13.5535 11.3342 14.0808 10.7581 14.7253 10.3186C14.4714 9.36157 13.9441 8.43384 13.1238 7.62329C12.5085 7.00806 11.7273 6.56861 10.4773 6.35376ZM7.58667 13.1311C8.14331 13.6975 8.84644 14.1174 9.94019 14.3909C10.3503 13.9514 10.7507 13.512 11.1609 13.0823C10.0671 12.8967 9.33472 12.5256 8.76831 11.9592C7.05933 10.2502 7.06909 7.82837 8.75855 6.13892L11.9421 2.95532C13.6511 1.25611 16.0535 1.24634 17.7625 2.95532C19.4714 4.66431 19.4519 7.07642 17.7625 8.76587L17.0496 9.47876C17.7234 9.32251 18.5925 9.29321 19.2468 9.42017L19.5105 9.13696C21.2683 6.9397 21.0828 3.92212 18.9441 1.77368C16.571-0.599363 13.2507-0.579832 10.907 1.76392L7.57691 5.10376C5.23316 7.44751 5.21362 10.7678 7.58667 13.1311ZM18.075 20.553C20.7605 20.553 23.0359 18.3069 23.0359 15.592C23.0359 12.8772 20.7898 10.6311 18.075 10.6311C15.3503 10.6311 13.114 12.8772 13.114 15.592C13.114 18.3264 15.3503 20.553 18.075 20.553ZM18.075 18.6975C17.7039 18.6975 17.4695 18.4631 17.4695 18.1018L17.4695 16.1975L15.5652 16.1975C15.2039 16.1975 14.9695 15.9534 14.9695 15.592C14.9695 15.2307 15.2039 14.9963 15.5652 14.9963L17.4695 14.9963L17.4695 13.092C17.4695 12.7307 17.7039 12.4866 18.075 12.4866C18.4363 12.4866 18.6707 12.7307 18.6707 13.092L18.6707 14.9963L20.575 14.9963C20.9363 14.9963 21.1804 15.2307 21.1804 15.592C21.1804 15.9534 20.9363 16.1975 20.575 16.1975L18.6707 16.1975L18.6707 18.1018C18.6707 18.4631 18.4363 18.6975 18.075 18.6975Z" fill="#ffffff" fill-opacity="0.85"/>
 </g>
</svg>
