<?xml version="1.0" encoding="UTF-8"?>
<!--Generator: Apple Native CoreSVG 175.5-->
<!DOCTYPE svg
PUBLIC "-//W3C//DTD SVG 1.1//EN"
       "http://www.w3.org/Graphics/SVG/1.1/DTD/svg11.dtd">
<svg version="1.1" xmlns="http://www.w3.org/2000/svg" xmlns:xlink="http://www.w3.org/1999/xlink" width="15.9473" height="22.2363">
 <g>
  <rect height="22.2363" opacity="0" width="15.9473" x="0" y="0"/>
  <path d="M6.9043 21.2598C10.332 21.2598 12.7539 19.4043 14.0527 15.7422L15.7715 10.9082C15.8887 10.5762 15.9473 10.2539 15.9473 9.96094C15.9473 8.92578 15.166 8.20312 14.1699 8.20312C13.4961 8.20312 12.8906 8.60352 12.5586 9.375L11.9238 10.9375C11.9043 10.9766 11.875 11.0059 11.8359 11.0059C11.7871 11.0059 11.7676 10.9668 11.7676 10.918L11.7676 3.08594C11.7676 1.94336 11.0547 1.2207 9.96094 1.2207C9.56055 1.2207 9.19922 1.36719 8.92578 1.62109C8.79883 0.615234 8.1543 0 7.1875 0C6.24023 0 5.57617 0.634766 5.42969 1.60156C5.18555 1.35742 4.83398 1.2207 4.48242 1.2207C3.4668 1.2207 2.79297 1.93359 2.79297 3.01758L2.79297 4.10156C2.5293 3.82812 2.12891 3.68164 1.71875 3.68164C0.703125 3.68164 0 4.42383 0 5.52734L0 13.916C0 18.4863 2.77344 21.2598 6.9043 21.2598ZM6.85547 19.9121C3.39844 19.9121 1.28906 17.6855 1.28906 13.7598L1.28906 5.66406C1.28906 5.24414 1.55273 4.96094 1.96289 4.96094C2.36328 4.96094 2.65625 5.24414 2.65625 5.66406L2.65625 10.6543C2.65625 11.0156 2.94922 11.2598 3.26172 11.2598C3.59375 11.2598 3.89648 11.0156 3.89648 10.6543L3.89648 3.19336C3.89648 2.77344 4.16016 2.48047 4.56055 2.48047C4.9707 2.48047 5.25391 2.77344 5.25391 3.19336L5.25391 10.1562C5.25391 10.5176 5.54688 10.7617 5.86914 10.7617C6.20117 10.7617 6.49414 10.5176 6.49414 10.1562L6.49414 1.98242C6.49414 1.5625 6.77734 1.25977 7.1875 1.25977C7.57812 1.25977 7.86133 1.5625 7.86133 1.98242L7.86133 10.1562C7.86133 10.498 8.13477 10.7617 8.47656 10.7617C8.80859 10.7617 9.10156 10.498 9.10156 10.1562L9.10156 3.19336C9.10156 2.77344 9.38477 2.48047 9.78516 2.48047C10.1855 2.48047 10.4688 2.77344 10.4688 3.19336L10.4688 12.8027C10.4688 13.291 10.752 13.5742 11.1621 13.5742C11.5137 13.5742 11.8066 13.418 12.0312 12.9297L13.4375 9.79492C13.623 9.375 13.9844 9.22852 14.3262 9.35547C14.707 9.49219 14.8242 9.85352 14.6484 10.332L12.8613 15.3223C11.6699 18.6523 9.58008 19.9121 6.85547 19.9121Z" fill="#ffffff" fill-opacity="0.85"/>
 </g>
</svg>
