<?xml version="1.0" encoding="UTF-8"?>
<!--Generator: Apple Native CoreSVG 175.5-->
<!DOCTYPE svg
PUBLIC "-//W3C//DTD SVG 1.1//EN"
       "http://www.w3.org/Graphics/SVG/1.1/DTD/svg11.dtd">
<svg version="1.1" xmlns="http://www.w3.org/2000/svg" xmlns:xlink="http://www.w3.org/1999/xlink" width="20.957" height="20.3223">
 <g>
  <rect height="20.3223" opacity="0" width="20.957" x="0" y="0"/>
  <path d="M9.96094 20.1172C15.4102 20.1172 19.9219 15.5957 19.9219 10.1562C19.9219 9.28711 19.8047 8.44727 19.5703 7.64648C19.0723 7.87109 18.5352 8.00781 17.9688 8.02734C18.1543 8.70117 18.2617 9.42383 18.2617 10.1562C18.2715 14.7656 14.5703 18.457 9.96094 18.457C5.35156 18.457 1.66992 14.7656 1.66992 10.1562C1.66992 5.54688 5.3418 1.85547 9.95117 1.85547C11.0254 1.85547 12.041 2.05078 12.9785 2.42188C13.0762 1.86523 13.2812 1.34766 13.5645 0.888672C12.4512 0.439453 11.2305 0.195312 9.95117 0.195312C4.51172 0.195312 0 4.70703 0 10.1562C0 15.5957 4.52148 20.1172 9.96094 20.1172ZM4.85352 11.2109L9.95117 11.2109C10.332 11.2109 10.6348 10.918 10.6348 10.5273L10.6348 3.94531C10.6348 3.56445 10.332 3.27148 9.95117 3.27148C9.57031 3.27148 9.27734 3.56445 9.27734 3.94531L9.27734 9.85352L4.85352 9.85352C4.46289 9.85352 4.16992 10.1465 4.16992 10.5273C4.16992 10.918 4.46289 11.2109 4.85352 11.2109ZM17.5684 6.76758C19.4141 6.76758 20.957 5.24414 20.957 3.38867C20.957 1.52344 19.4141 0 17.5684 0C15.7129 0 14.1797 1.52344 14.1797 3.38867C14.1797 5.24414 15.7129 6.76758 17.5684 6.76758Z" fill="#ffffff" fill-opacity="0.85"/>
 </g>
</svg>
