<?xml version="1.0" encoding="UTF-8"?>
<!--Generator: Apple Native CoreSVG 175.5-->
<!DOCTYPE svg
PUBLIC "-//W3C//DTD SVG 1.1//EN"
       "http://www.w3.org/Graphics/SVG/1.1/DTD/svg11.dtd">
<svg version="1.1" xmlns="http://www.w3.org/2000/svg" xmlns:xlink="http://www.w3.org/1999/xlink" width="13.3301" height="19.6582">
 <g>
  <rect height="19.6582" opacity="0" width="13.3301" x="0" y="0"/>
  <path d="M2.19727 19.1504L11.1328 19.1504C12.5684 19.1504 13.3301 18.3691 13.3301 16.8262L13.3301 10.0977C13.3301 8.56445 12.5684 7.7832 11.1328 7.7832L2.19727 7.7832C0.761719 7.7832 0 8.56445 0 10.0977L0 16.8262C0 18.3691 0.761719 19.1504 2.19727 19.1504ZM2.24609 17.6758C1.82617 17.6758 1.58203 17.4121 1.58203 16.9336L1.58203 9.99023C1.58203 9.51172 1.82617 9.25781 2.24609 9.25781L11.084 9.25781C11.5137 9.25781 11.748 9.51172 11.748 9.99023L11.748 16.9336C11.748 17.4121 11.5137 17.6758 11.084 17.6758ZM1.70898 8.53516L3.26172 8.53516L3.26172 5.24414C3.26172 2.77344 4.83398 1.47461 6.66016 1.47461C8.48633 1.47461 10.0781 2.77344 10.0781 5.24414L10.0781 8.53516L11.6211 8.53516L11.6211 5.44922C11.6211 1.77734 9.21875 0 6.66016 0C4.11133 0 1.70898 1.77734 1.70898 5.44922Z" fill="#ffffff" fill-opacity="0.85"/>
 </g>
</svg>
