<?xml version="1.0" encoding="UTF-8"?>
<!--Generator: Apple Native CoreSVG 175.5-->
<!DOCTYPE svg
PUBLIC "-//W3C//DTD SVG 1.1//EN"
       "http://www.w3.org/Graphics/SVG/1.1/DTD/svg11.dtd">
<svg version="1.1" xmlns="http://www.w3.org/2000/svg" xmlns:xlink="http://www.w3.org/1999/xlink" width="23.623" height="20.127">
 <g>
  <rect height="20.127" opacity="0" width="23.623" x="0" y="0"/>
  <path d="M13.6621 20.0195C19.1016 20.0195 23.623 15.498 23.623 10.0586C23.623 4.60938 19.0918 0.0976562 13.6523 0.0976562C8.56445 0.0976562 4.31641 4.01367 3.76953 8.96484C4.24805 8.87695 4.94141 8.83789 5.45898 8.89648C5.99609 4.84375 9.43359 1.75781 13.6523 1.75781C18.252 1.75781 21.9629 5.44922 21.9629 10.0586C21.9629 12.207 21.1621 14.1602 19.8242 15.6152C18.8672 14.4727 16.6016 13.3789 13.6523 13.3789C12.7148 13.3789 11.8555 13.4961 11.084 13.6816C11.2012 14.1504 11.2598 14.6582 11.2598 15.1562C11.2598 16.6797 10.7031 18.0957 9.76562 19.1992C10.9668 19.7266 12.2852 20.0195 13.6621 20.0195ZM13.6523 11.7188C15.5273 11.7383 17.002 10.1367 17.002 8.03711C17.002 6.06445 15.5176 4.43359 13.6523 4.43359C11.7773 4.43359 10.2832 6.06445 10.3027 8.03711C10.3125 10.127 11.7773 11.6992 13.6523 11.7188ZM4.96094 20.127C7.64648 20.127 9.92188 17.8809 9.92188 15.166C9.92188 12.4414 7.68555 10.2051 4.96094 10.2051C2.24609 10.2051 0 12.4512 0 15.166C0 17.9004 2.24609 20.127 4.96094 20.127ZM4.96094 18.2715C4.59961 18.2715 4.36523 18.0371 4.36523 17.6758L4.36523 15.7617L2.45117 15.7617C2.09961 15.7617 1.85547 15.5273 1.85547 15.166C1.85547 14.8047 2.09961 14.5703 2.45117 14.5703L4.36523 14.5703L4.36523 12.6562C4.36523 12.3047 4.59961 12.0605 4.96094 12.0605C5.32227 12.0605 5.55664 12.3047 5.55664 12.6562L5.55664 14.5703L7.4707 14.5703C7.82227 14.5703 8.06641 14.8047 8.06641 15.166C8.06641 15.5273 7.82227 15.7617 7.4707 15.7617L5.55664 15.7617L5.55664 17.6758C5.55664 18.0371 5.32227 18.2715 4.96094 18.2715Z" fill="#ffffff" fill-opacity="0.85"/>
 </g>
</svg>
