<?xml version="1.0" encoding="UTF-8"?>
<!--Generator: Apple Native CoreSVG 175.5-->
<!DOCTYPE svg
PUBLIC "-//W3C//DTD SVG 1.1//EN"
       "http://www.w3.org/Graphics/SVG/1.1/DTD/svg11.dtd">
<svg version="1.1" xmlns="http://www.w3.org/2000/svg" xmlns:xlink="http://www.w3.org/1999/xlink" width="36.8164" height="17.8809">
 <g>
  <rect height="17.8809" opacity="0" width="36.8164" x="0" y="0"/>
  <path d="M12.2852 17.8809L24.5508 17.8809C26.084 17.8809 26.6309 17.4414 26.6309 16.582C26.6309 14.0625 23.4766 10.5859 18.418 10.5859C13.3496 10.5859 10.1953 14.0625 10.1953 16.582C10.1953 17.4414 10.7422 17.8809 12.2852 17.8809ZM18.418 8.83789C20.5176 8.83789 22.3242 6.96289 22.3242 4.52148C22.3242 2.10938 20.5078 0.322266 18.418 0.322266C16.3379 0.322266 14.5117 2.14844 14.5215 4.54102C14.5215 6.96289 16.3281 8.83789 18.418 8.83789ZM1.71875 17.8809L9.13086 17.8809C8.11523 16.4062 9.35547 13.4375 11.4648 11.8164C10.3711 11.0938 8.97461 10.5566 7.1582 10.5566C2.75391 10.5566 0 13.8086 0 16.5137C0 17.3926 0.478516 17.8809 1.71875 17.8809ZM7.1582 9.0625C8.98438 9.0625 10.5566 7.42188 10.5566 5.30273C10.5566 3.20312 8.97461 1.65039 7.1582 1.65039C5.35156 1.65039 3.75 3.24219 3.75977 5.32227C3.75977 7.42188 5.3418 9.0625 7.1582 9.0625ZM35.0977 17.8809C36.3379 17.8809 36.8164 17.3926 36.8164 16.5137C36.8164 13.8086 34.0625 10.5566 29.6582 10.5566C27.832 10.5566 26.4355 11.0938 25.3516 11.8164C27.4512 13.4375 28.6914 16.4062 27.6758 17.8809ZM29.6484 9.0625C31.4746 9.0625 33.0566 7.42188 33.0566 5.32227C33.0566 3.24219 31.4648 1.65039 29.6484 1.65039C27.8418 1.65039 26.25 3.20312 26.25 5.30273C26.25 7.42188 27.832 9.0625 29.6484 9.0625Z" fill="#ffffff" fill-opacity="0.85"/>
 </g>
</svg>
