<?xml version="1.0" encoding="UTF-8"?>
<!--Generator: Apple Native CoreSVG 175.5-->
<!DOCTYPE svg
PUBLIC "-//W3C//DTD SVG 1.1//EN"
       "http://www.w3.org/Graphics/SVG/1.1/DTD/svg11.dtd">
<svg version="1.1" xmlns="http://www.w3.org/2000/svg" xmlns:xlink="http://www.w3.org/1999/xlink" width="23.9062" height="18.916">
 <g>
  <rect height="18.916" opacity="0" width="23.9062" x="0" y="0"/>
  <path d="M0 15.9375C0 17.8711 1.02539 18.877 2.98828 18.877L14.9902 18.877C16.9434 18.877 17.9688 17.8711 17.9688 15.9375L17.9688 12.4902C17.9688 12.334 18.0762 12.2559 18.2617 12.3828C18.877 12.8223 19.5898 13.1348 20.4102 13.1348C22.2559 13.1348 23.9062 11.6504 23.9062 9.47266C23.9062 7.30469 22.2559 5.82031 20.4102 5.82031C19.5898 5.82031 18.877 6.13281 18.2617 6.57227C18.0762 6.69922 17.9688 6.62109 17.9688 6.46484L17.9688 2.93945C17.9688 1.00586 16.9434 0 14.9902 0L2.98828 0C1.02539 0 0 1.00586 0 2.93945L0 7.25586C0 8.07617 0.537109 8.56445 1.21094 8.56445C1.58203 8.56445 1.96289 8.4082 2.34375 8.05664C2.82227 7.62695 3.35938 7.36328 3.93555 7.36328C5.04883 7.36328 5.98633 8.19336 5.98633 9.45312C5.98633 10.7129 5.04883 11.543 3.93555 11.543C3.35938 11.543 2.82227 11.2695 2.34375 10.8398C1.96289 10.498 1.58203 10.3418 1.21094 10.3418C0.537109 10.3418 0 10.8301 0 11.6406ZM1.57227 15.8594L1.57227 12.6074C1.57227 12.1484 1.80664 12.3242 1.99219 12.4414C2.58789 12.8223 3.24219 13.1055 4.01367 13.1055C5.84961 13.1055 7.50977 11.6309 7.50977 9.45312C7.50977 7.27539 5.84961 5.80078 4.01367 5.80078C3.24219 5.80078 2.58789 6.08398 1.99219 6.46484C1.80664 6.58203 1.57227 6.75781 1.57227 6.29883L1.57227 3.01758C1.57227 2.08984 2.10938 1.57227 3.01758 1.57227L14.9609 1.57227C15.8691 1.57227 16.3965 2.08984 16.3965 3.01758L16.3965 7.25586C16.3965 8.07617 16.9336 8.59375 17.6074 8.59375C17.9785 8.59375 18.3594 8.4375 18.7402 8.08594C19.2188 7.65625 19.7559 7.38281 20.332 7.38281C21.4453 7.38281 22.3828 8.21289 22.3828 9.47266C22.3828 10.7422 21.4453 11.5723 20.332 11.5723C19.7559 11.5723 19.2188 11.2988 18.7402 10.8691C18.3594 10.5176 17.9785 10.3613 17.6074 10.3613C16.9336 10.3613 16.3965 10.8789 16.3965 11.6992L16.3965 15.8594C16.3965 16.7969 15.8691 17.3047 14.9609 17.3047L3.01758 17.3047C2.10938 17.3047 1.57227 16.7969 1.57227 15.8594Z" fill="#ffffff" fill-opacity="0.85"/>
 </g>
</svg>
