<?xml version="1.0" encoding="UTF-8"?>
<!--Generator: Apple Native CoreSVG 175.5-->
<!DOCTYPE svg
PUBLIC "-//W3C//DTD SVG 1.1//EN"
       "http://www.w3.org/Graphics/SVG/1.1/DTD/svg11.dtd">
<svg version="1.1" xmlns="http://www.w3.org/2000/svg" xmlns:xlink="http://www.w3.org/1999/xlink" width="19.9219" height="19.9316">
 <g>
  <rect height="19.9316" opacity="0" width="19.9219" x="0" y="0"/>
  <path d="M1.57227 5.82031C3.98438 8.38867 7.38281 9.87305 10.9961 9.86328C13.8477 9.85352 16.5527 8.90625 18.7598 7.16797L18.2031 6.07422C16.1914 7.75391 13.6621 8.67188 10.9961 8.68164C7.53906 8.69141 4.30664 7.1875 2.11914 4.60938ZM0.527344 11.3965C5.60547 15.7324 12.8711 16.543 18.7305 13.4766L18.7012 12.1387C13.0078 15.4297 5.73242 14.6094 0.820312 10.0684ZM5.37109 18.1055L6.76758 18.4277C6.11328 16.8555 5.76172 15.1953 5.73242 13.4863C5.45898 8.63281 7.54883 4.00391 11.2793 0.947266L10.0293 0.458984C6.32812 3.74023 4.28711 8.51562 4.55078 13.5059C4.57031 15.0684 4.85352 16.6113 5.37109 18.1055ZM11.8066 19.0723L12.9102 18.584C11.084 16.0059 10.0879 12.9492 10.0879 9.75586C10.0879 6.72852 10.9668 3.83789 12.6172 1.37695L11.4648 0.966797C9.79492 3.58398 8.90625 6.62109 8.90625 9.75586C8.90625 13.125 9.92188 16.3379 11.8066 19.0723ZM17.5586 15.4395L18.3496 14.541C15.0684 12.6562 13.0176 9.20898 12.9688 5.38086C12.9492 4.01367 13.1934 2.65625 13.6816 1.40625L12.5391 1.08398C12.0215 2.45117 11.7676 3.89648 11.7871 5.39062C11.8359 9.54102 14.0332 13.3301 17.5586 15.4395ZM5.72266 9.74609C6.55273 9.74609 7.23633 9.05273 7.23633 8.21289C7.23633 7.37305 6.55273 6.68945 5.72266 6.68945C4.87305 6.68945 4.18945 7.37305 4.18945 8.21289C4.18945 9.05273 4.87305 9.74609 5.72266 9.74609ZM13.2031 10.5566C14.0234 10.5566 14.6973 9.88281 14.6973 9.04297C14.6973 8.22266 14.0234 7.54883 13.2031 7.54883C12.3633 7.54883 11.6895 8.22266 11.6895 9.04297C11.6895 9.88281 12.3633 10.5566 13.2031 10.5566ZM10.293 16.2012C11.1328 16.2012 11.8066 15.5273 11.8066 14.6777C11.8066 13.8379 11.1328 13.1543 10.293 13.1543C9.44336 13.1543 8.75977 13.8379 8.75977 14.6777C8.75977 15.5273 9.44336 16.2012 10.293 16.2012ZM9.96094 19.9219C15.4102 19.9219 19.9219 15.4004 19.9219 9.96094C19.9219 4.51172 15.4004 0 9.95117 0C4.51172 0 0 4.51172 0 9.96094C0 15.4004 4.52148 19.9219 9.96094 19.9219ZM9.96094 18.5938C5.24414 18.5938 1.32812 14.6777 1.32812 9.96094C1.32812 5.24414 5.23438 1.32812 9.95117 1.32812C14.668 1.32812 18.5938 5.24414 18.5938 9.96094C18.5938 14.6777 14.6777 18.5938 9.96094 18.5938Z" fill="#ffffff" fill-opacity="0.85"/>
 </g>
</svg>
