<?xml version="1.0" standalone="no"?><!-- Generator: Gravit.io --><svg xmlns="http://www.w3.org/2000/svg" xmlns:xlink="http://www.w3.org/1999/xlink" style="isolation:isolate" viewBox="0 0 16 16" width="16" height="16"><defs><clipPath id="_clipPath_gC30q9gZNwccwW44kBngwOgvaOlATccQ"><rect width="16" height="16"/></clipPath></defs><g clip-path="url(#_clipPath_gC30q9gZNwccwW44kBngwOgvaOlATccQ)"><path d=" M 8 2 L 3.2 3.592 L 3.2 9.192 C 3.2 10.849 4.46 12.01 5.55 12.767 C 6.64 13.525 8 14 8 14 C 8 14 9.363 13.507 10.45 12.742 C 11.537 11.978 12.8 10.828 12.8 9.192 L 12.8 3.592 L 8 2 Z  M 8 3.686 L 8 7.6 L 11.2 7.6 L 11.2 9.192 C 11.2 10.004 10.476 10.769 9.53 11.434 C 8.914 11.868 8.392 12.053 8 12.216 L 8 7.6 L 4.8 7.6 L 4.8 4.747 L 8 3.686 L 8 3.686 Z " fill="#f8f8f8"/></g></svg>