<?xml version="1.0" encoding="UTF-8"?>
<!--Generator: Apple Native CoreSVG 175.5-->
<!DOCTYPE svg
PUBLIC "-//W3C//DTD SVG 1.1//EN"
       "http://www.w3.org/Graphics/SVG/1.1/DTD/svg11.dtd">
<svg version="1.1" xmlns="http://www.w3.org/2000/svg" xmlns:xlink="http://www.w3.org/1999/xlink" width="7.33398" height="21.4551">
 <g>
  <rect height="21.4551" opacity="0" width="7.33398" x="0" y="0"/>
  <path d="M0 3.68164C0 5.40039 1.16211 6.83594 2.75391 7.23633L2.75391 16.2988C2.75391 19.1797 3.27148 20.752 3.66211 20.752C4.0625 20.752 4.57031 19.1895 4.57031 16.2988L4.57031 7.23633C6.16211 6.8457 7.33398 5.40039 7.33398 3.68164C7.33398 1.66016 5.70312 0 3.66211 0C1.63086 0 0 1.66016 0 3.68164ZM2.61719 3.88672C1.94336 3.88672 1.35742 3.30078 1.35742 2.61719C1.35742 1.94336 1.94336 1.36719 2.61719 1.36719C3.30078 1.36719 3.86719 1.94336 3.86719 2.61719C3.86719 3.30078 3.30078 3.88672 2.61719 3.88672Z" fill="#ffffff" fill-opacity="0.85"/>
 </g>
</svg>
