<?xml version="1.0" standalone="no"?><!-- Generator: Gravit.io --><svg xmlns="http://www.w3.org/2000/svg" xmlns:xlink="http://www.w3.org/1999/xlink" style="isolation:isolate" viewBox="0 0 22 22" width="22" height="22"><defs><clipPath id="_clipPath_ffkukK5ivoRFfYAPNT1Ah0Q2nWWF3lns"><rect width="22" height="22"/></clipPath></defs><g clip-path="url(#_clipPath_ffkukK5ivoRFfYAPNT1Ah0Q2nWWF3lns)"><path d=" M 3 11.921 L 3.002 11.921 C 3.003 12.324 3.152 12.725 3.449 13.035 C 4.042 13.655 5.048 13.651 5.637 13.027 L 10.987 7.359 L 16.373 12.986 C 16.966 13.606 17.973 13.604 18.561 12.98 C 19.151 12.357 19.145 11.366 18.552 10.747 L 12.201 4.112 L 12.066 3.971 L 12.066 3.969 C 11.769 3.659 11.369 3.499 10.971 3.5 C 10.573 3.502 10.174 3.665 9.88 3.977 L 3.439 10.804 L 3.441 10.804 C 3.147 11.116 2.999 11.518 3 11.921 Z  M 8.508 15.999 C 8.508 17.376 9.631 18.5 11.006 18.5 C 12.381 18.5 13.504 17.376 13.504 15.999 C 13.504 14.622 12.381 13.498 11.006 13.498 C 9.631 13.498 8.508 14.622 8.508 15.999 Z " fill="#f8f8f8"/></g></svg>