<?xml version="1.0" encoding="UTF-8"?>
<!--Generator: Apple Native CoreSVG 175.5-->
<!DOCTYPE svg
PUBLIC "-//W3C//DTD SVG 1.1//EN"
       "http://www.w3.org/Graphics/SVG/1.1/DTD/svg11.dtd">
<svg version="1.1" xmlns="http://www.w3.org/2000/svg" xmlns:xlink="http://www.w3.org/1999/xlink" width="24.5508" height="20.7812">
 <g>
  <rect height="20.7812" opacity="0" width="24.5508" x="0" y="0"/>
  <path d="M5.84961 18.0811L15.1953 18.0811L13.6133 16.5088L5.84961 16.5088C3.38867 16.5088 1.57227 14.79 1.57227 12.7979C1.57227 10.8447 2.75391 9.29199 4.82422 9.29199C4.96094 9.29199 5.00977 9.22363 5.00977 9.09668C5.00977 8.71582 5.05859 8.36426 5.16602 8.07129L3.86719 6.77246C3.68164 7.16309 3.59375 7.6123 3.58398 8.09082C1.37695 8.44238 0 10.415 0 12.7979C0 15.6689 2.50977 18.0811 5.84961 18.0811ZM20.459 17.915C22.8809 17.4268 24.5508 15.5322 24.5508 13.2373C24.5508 11.1865 23.3691 9.40918 21.4648 8.6084C21.4844 4.25293 18.3496 1.1084 14.3555 1.1084C11.709 1.1084 9.82422 2.52441 8.65234 4.2334C8.04688 4.06738 7.38281 4.06738 6.76758 4.2334L8.26172 5.72754C8.55469 5.71777 8.87695 5.7666 9.17969 5.85449C9.29688 5.89355 9.36523 5.86426 9.42383 5.75684C10.3711 4.06738 11.8262 2.68066 14.3555 2.68066C17.5586 2.68066 19.7754 5.21973 19.9414 8.12012C19.9707 8.56934 19.9414 9.09668 19.9023 9.55566C19.8926 9.68262 19.9414 9.75098 20.0586 9.78027C21.8359 10.1709 22.9785 11.4697 22.9785 13.2373C22.9785 15.0537 21.377 16.5088 19.2969 16.5088L19.0527 16.5088ZM19.3164 20.5615C19.6094 20.8545 20.0879 20.8545 20.3809 20.5615C20.6738 20.2686 20.6738 19.79 20.3809 19.4971L4.08203 3.20801C3.78906 2.90527 3.30078 2.9248 3.00781 3.20801C2.72461 3.49121 2.73438 3.99902 3.00781 4.27246Z" fill="#ffffff" fill-opacity="0.85"/>
 </g>
</svg>
