<?xml version="1.0" encoding="UTF-8"?>
<!--Generator: Apple Native CoreSVG 175.5-->
<!DOCTYPE svg
PUBLIC "-//W3C//DTD SVG 1.1//EN"
       "http://www.w3.org/Graphics/SVG/1.1/DTD/svg11.dtd">
<svg version="1.1" xmlns="http://www.w3.org/2000/svg" xmlns:xlink="http://www.w3.org/1999/xlink" width="19.6777" height="14.2871">
 <g>
  <rect height="14.2871" opacity="0" width="19.6777" x="0" y="0"/>
  <path d="M5.54688 2.03125L18.8867 2.03125C19.3262 2.03125 19.6777 1.68945 19.6777 1.25C19.6777 0.800781 19.3262 0.458984 18.8867 0.458984L5.54688 0.458984C5.09766 0.458984 4.75586 0.800781 4.75586 1.25C4.75586 1.68945 5.09766 2.03125 5.54688 2.03125ZM5.54688 7.93945L18.8867 7.93945C19.3262 7.93945 19.6777 7.58789 19.6777 7.14844C19.6777 6.70898 19.3262 6.36719 18.8867 6.36719L5.54688 6.36719C5.09766 6.36719 4.75586 6.70898 4.75586 7.14844C4.75586 7.58789 5.09766 7.93945 5.54688 7.93945ZM5.54688 13.8379L18.8867 13.8379C19.3262 13.8379 19.6777 13.4961 19.6777 13.0566C19.6777 12.6074 19.3262 12.2656 18.8867 12.2656L5.54688 12.2656C5.09766 12.2656 4.75586 12.6074 4.75586 13.0566C4.75586 13.4961 5.09766 13.8379 5.54688 13.8379ZM1.23047 2.4707C1.91406 2.4707 2.46094 1.92383 2.46094 1.25C2.46094 0.566406 1.91406 0.0195312 1.23047 0.0195312C0.546875 0.0195312 0 0.566406 0 1.25C0 1.92383 0.546875 2.4707 1.23047 2.4707ZM1.23047 8.37891C1.91406 8.37891 2.46094 7.83203 2.46094 7.14844C2.46094 6.46484 1.91406 5.91797 1.23047 5.91797C0.546875 5.91797 0 6.46484 0 7.14844C0 7.83203 0.546875 8.37891 1.23047 8.37891ZM1.23047 14.2871C1.91406 14.2871 2.46094 13.7305 2.46094 13.0566C2.46094 12.373 1.91406 11.8262 1.23047 11.8262C0.546875 11.8262 0 12.373 0 13.0566C0 13.7305 0.546875 14.2871 1.23047 14.2871Z" fill="#ffffff" fill-opacity="0.85"/>
 </g>
</svg>
