<?xml version="1.0" encoding="UTF-8"?>
<!--Generator: Apple Native CoreSVG 175.5-->
<!DOCTYPE svg
PUBLIC "-//W3C//DTD SVG 1.1//EN"
       "http://www.w3.org/Graphics/SVG/1.1/DTD/svg11.dtd">
<svg version="1.1" xmlns="http://www.w3.org/2000/svg" xmlns:xlink="http://www.w3.org/1999/xlink" width="14.7461" height="14.8535">
 <g>
  <rect height="14.8535" opacity="0" width="14.7461" x="0" y="0"/>
  <path d="M1.39648 14.7461C2.1582 14.7461 2.77344 14.1211 2.77344 13.3691C2.77344 12.5977 2.16797 11.9824 1.39648 11.9824C0.634766 11.9824 0 12.627 0 13.3984C0 14.1211 0.654297 14.7461 1.39648 14.7461ZM0.146484 8.78906C0.146484 9.21875 0.507812 9.57031 0.9375 9.57031C3.27148 9.57031 5.17578 11.4746 5.17578 13.8086C5.17578 14.2383 5.52734 14.5996 5.95703 14.5996C6.38672 14.5996 6.74805 14.2383 6.74805 13.8086C6.74805 10.6055 4.13086 7.99805 0.9375 7.99805C0.507812 7.99805 0.146484 8.35938 0.146484 8.78906ZM0.146484 4.91211C0.146484 5.3418 0.507812 5.69336 0.9375 5.69336C5.41992 5.69336 9.05273 9.32617 9.05273 13.8086C9.05273 14.2383 9.4043 14.5996 9.83398 14.5996C10.2637 14.5996 10.625 14.2383 10.625 13.8086C10.625 8.4668 6.2793 4.12109 0.9375 4.12109C0.507812 4.12109 0.146484 4.48242 0.146484 4.91211ZM0.146484 0.78125C0.146484 1.21094 0.507812 1.57227 0.9375 1.57227C7.68555 1.57227 13.1738 7.06055 13.1738 13.8086C13.1738 14.2383 13.5352 14.5996 13.9648 14.5996C14.3945 14.5996 14.7461 14.2383 14.7461 13.8086C14.7461 6.20117 8.54492 0 0.9375 0C0.507812 0 0.146484 0.351562 0.146484 0.78125Z" fill="#000000" fill-opacity="0.85"/>
 </g>
</svg>
