<?xml version="1.0" standalone="no"?><!-- Generator: Gravit.io --><svg xmlns="http://www.w3.org/2000/svg" xmlns:xlink="http://www.w3.org/1999/xlink" style="isolation:isolate" viewBox="0 0 22 22" width="22" height="22"><defs><clipPath id="_clipPath_QoPEvWt2VeGgNi9lps4HmQqmIP4RbrGy"><rect width="22" height="22"/></clipPath></defs><g clip-path="url(#_clipPath_QoPEvWt2VeGgNi9lps4HmQqmIP4RbrGy)"><path d=" M 10.963 13.732 C 11.387 13.732 11.732 14.077 11.732 14.501 C 11.732 14.925 11.387 15.271 10.963 15.271 C 10.539 15.271 10.193 14.925 10.193 14.501 C 10.193 14.077 10.539 13.732 10.963 13.732 Z  M 11.693 8.03 L 11.693 12.243 C 11.693 12.646 11.366 12.973 10.963 12.973 C 10.56 12.973 10.232 12.646 10.232 12.243 L 10.232 8.03 C 10.232 7.626 10.56 7.299 10.963 7.299 C 11.366 7.299 11.693 7.626 11.693 8.03 Z  M 18.429 6.37 C 18.424 5.995 18.135 5.685 17.762 5.65 C 14.659 5.36 12.127 3.702 11.292 3.095 C 11.117 2.968 10.881 2.968 10.707 3.095 C 9.873 3.702 7.341 5.36 4.238 5.65 C 3.865 5.685 3.578 5.995 3.571 6.37 C 3.534 8.817 3.927 17.126 10.813 18.976 C 10.935 19.008 11.064 19.008 11.186 18.976 C 18.072 17.128 18.465 8.817 18.429 6.37 Z " fill="#f8f8f8"/></g></svg>