<?xml version="1.0" encoding="UTF-8" ?>
<!DOCTYPE svg PUBLIC "-//W3C//DTD SVG 1.1//EN" "http://www.w3.org/Graphics/SVG/1.1/DTD/svg11.dtd">
<svg width="1024pt" height="1024pt" viewBox="0 0 1024 1024" version="1.1" xmlns="http://www.w3.org/2000/svg">
<g id="#95ddffff">
<path fill="#95ddff" opacity="1.00" d=" M 58.26 149.25 C 65.65 143.55 74.67 139.91 84.00 139.20 C 89.32 138.81 94.66 139.02 100.00 138.99 C 165.33 138.99 230.66 138.99 296.00 138.98 C 301.54 139.02 307.11 138.77 312.62 139.51 C 321.59 140.79 329.81 145.46 336.24 151.75 C 351.03 166.09 358.99 185.89 373.78 200.24 C 379.99 206.34 387.91 210.90 396.56 212.36 C 402.32 213.29 408.19 212.94 414.00 212.99 C 584.67 212.99 755.33 212.99 926.00 212.99 C 931.33 213.01 936.67 212.83 942.00 213.22 C 955.35 214.20 968.03 221.22 976.31 231.69 C 982.47 239.43 986.34 249.04 986.88 258.94 C 987.21 264.95 987.00 270.98 987.05 277.00 C 986.98 284.76 987.26 292.53 986.80 300.29 C 985.18 292.52 982.45 284.78 977.53 278.46 C 972.07 271.52 965.19 265.48 956.97 262.08 C 948.78 258.67 939.76 258.22 931.01 258.20 C 909.67 258.16 888.33 258.37 867.00 258.17 C 809.66 258.34 752.34 258.26 695.00 258.19 C 633.00 258.38 571.00 258.21 509.00 258.23 C 466.33 258.45 423.67 258.08 381.00 258.28 C 374.00 258.33 367.00 258.09 360.00 258.12 C 318.00 258.48 276.00 258.16 234.00 258.25 C 218.00 258.35 202.00 258.03 186.00 258.23 C 157.33 258.40 128.67 258.20 100.00 258.22 C 93.09 258.15 86.10 257.89 79.28 259.28 C 70.84 260.88 62.92 264.84 56.32 270.31 C 47.44 277.99 41.28 288.72 39.18 300.28 C 38.82 294.20 38.96 288.10 38.95 282.00 C 38.95 254.33 38.95 226.67 38.95 199.00 C 38.97 194.00 38.81 188.99 39.19 184.00 C 40.22 170.40 47.47 157.52 58.26 149.25 Z" />
</g>
<g id="#6ccbf7ff">
<path fill="#6ccbf7" opacity="1.00" d=" M 79.28 259.28 C 86.10 257.89 93.09 258.15 100.00 258.22 C 128.67 258.20 157.33 258.40 186.00 258.23 C 202.00 258.03 218.00 258.35 234.00 258.25 C 276.00 258.16 318.00 258.48 360.00 258.12 C 367.00 258.09 374.00 258.33 381.00 258.28 C 423.67 258.08 466.33 258.45 509.00 258.23 C 571.00 258.21 633.00 258.38 695.00 258.19 C 752.34 258.26 809.66 258.34 867.00 258.17 C 888.33 258.37 909.67 258.16 931.01 258.20 C 939.76 258.22 948.78 258.67 956.97 262.08 C 965.19 265.48 972.07 271.52 977.53 278.46 C 982.45 284.78 985.18 292.52 986.80 300.29 C 986.86 300.97 986.99 302.32 987.05 303.00 C 987.07 486.34 987.07 669.68 987.05 853.02 C 986.99 855.82 986.92 858.66 986.36 861.42 C 983.67 873.69 971.78 883.53 959.06 882.91 C 665.37 882.89 371.68 882.91 78.00 882.90 C 73.65 882.88 69.29 883.03 64.94 882.85 C 51.47 882.50 39.55 870.49 39.08 857.06 C 38.84 852.71 38.97 848.35 38.95 844.00 C 38.92 667.00 38.95 490.00 38.94 313.00 C 38.99 308.76 38.65 304.50 39.18 300.28 C 41.28 288.72 47.44 277.99 56.32 270.31 C 62.92 264.84 70.84 260.88 79.28 259.28 Z" />
</g>
</svg>
