<?xml version="1.0" encoding="UTF-8" ?>
<!DOCTYPE svg PUBLIC "-//W3C//DTD SVG 1.1//EN" "http://www.w3.org/Graphics/SVG/1.1/DTD/svg11.dtd">
<svg width="256pt" height="256pt" viewBox="0 0 256 256" version="1.1" xmlns="http://www.w3.org/2000/svg">
<path fill="#5c7e9a" stroke="#5c7e9a" stroke-width="0.09375" opacity="1.00" d=" M 15.12 37.12 C 17.96 35.05 21.61 34.97 24.97 34.96 C 41.32 35.01 57.67 35.02 74.02 34.95 C 77.09 35.00 80.49 34.91 83.03 36.93 C 88.04 40.72 89.98 47.26 94.98 51.06 C 97.22 52.85 100.21 52.98 102.95 53.02 C 146.32 52.94 189.69 53.04 233.05 52.97 C 237.26 52.79 241.85 53.99 244.44 57.55 C 247.94 61.94 246.95 67.89 246.98 73.10 C 245.26 69.42 242.67 65.56 238.45 64.60 C 233.06 63.38 227.48 63.97 222.00 63.90 C 160.00 63.98 98.00 63.92 36.00 63.94 C 30.19 64.02 24.27 63.33 18.54 64.59 C 14.30 65.52 11.73 69.42 10.04 73.11 C 9.91 64.72 9.91 56.32 9.98 47.93 C 9.87 43.78 11.58 39.46 15.12 37.12 Z" />
<path fill="#7fafd6" stroke="#7fafd6" stroke-width="0.09375" opacity="1.00" d=" M 18.54 64.59 C 24.27 63.33 30.19 64.02 36.00 63.94 C 98.00 63.92 160.00 63.98 222.00 63.90 C 227.48 63.97 233.06 63.38 238.45 64.60 C 242.67 65.56 245.26 69.42 246.98 73.10 C 247.15 118.74 246.97 164.39 247.07 210.03 C 246.94 213.03 247.29 216.61 244.83 218.83 C 243.13 220.75 240.44 220.90 238.06 220.93 C 164.69 220.87 91.32 220.94 17.95 220.89 C 14.85 221.10 11.69 219.41 10.57 216.45 C 9.83 214.04 9.99 211.48 9.92 209.00 C 10.05 163.71 9.82 118.40 10.04 73.11 C 11.73 69.42 14.30 65.52 18.54 64.59 Z" />
</svg>
