<?xml version="1.0" encoding="UTF-8"?>
<!--Generator: Apple Native CoreSVG 175.5-->
<!DOCTYPE svg
PUBLIC "-//W3C//DTD SVG 1.1//EN"
       "http://www.w3.org/Graphics/SVG/1.1/DTD/svg11.dtd">
<svg version="1.1" xmlns="http://www.w3.org/2000/svg" xmlns:xlink="http://www.w3.org/1999/xlink" width="2.77344" height="18.7012">
 <g>
  <rect height="18.7012" opacity="0" width="2.77344" x="0" y="0"/>
  <path d="M1.39648 13.3203C1.91406 13.3203 2.26562 12.9785 2.27539 12.4512L2.36328 1.07422C2.36328 1.07422 2.36328 1.07422 2.36328 1.07422C2.36328 0.517578 1.91406 0.136719 1.38672 0.136719C0.859375 0.136719 0.410156 0.517578 0.410156 1.07422C0.410156 1.07422 0.410156 1.07422 0.410156 1.07422L0.517578 12.4512C0.527344 12.9785 0.878906 13.3203 1.39648 13.3203ZM1.38672 18.7012C2.1582 18.7012 2.77344 18.0762 2.77344 17.3145C2.77344 16.543 2.1582 15.9277 1.38672 15.9277C0.625 15.9277 0 16.543 0 17.3145C0 18.0762 0.625 18.7012 1.38672 18.7012Z" fill="#000000" fill-opacity="0.85"/>
 </g>
</svg>
