<?xml version="1.0" encoding="UTF-8"?>
<!--Generator: Apple Native CoreSVG 175.5-->
<!DOCTYPE svg
PUBLIC "-//W3C//DTD SVG 1.1//EN"
       "http://www.w3.org/Graphics/SVG/1.1/DTD/svg11.dtd">
<svg version="1.1" xmlns="http://www.w3.org/2000/svg" xmlns:xlink="http://www.w3.org/1999/xlink" width="24.5508" height="18.5645">
 <g>
  <rect height="18.5645" opacity="0" width="24.5508" x="0" y="0"/>
  <path d="M19.2969 16.9727C22.2461 16.9727 24.5508 14.8145 24.5508 12.1289C24.5508 10.0781 23.3691 8.30078 21.4648 7.5C21.4844 3.14453 18.3496 0 14.3555 0C11.709 0 9.82422 1.41602 8.65234 3.125C6.25 2.42188 3.63281 4.24805 3.58398 6.98242C1.37695 7.33398 0 9.30664 0 11.6895C0 14.5605 2.50977 16.9727 5.84961 16.9727ZM8.35938 12.9004C7.29492 11.8359 7.29492 10.3125 8.35938 9.24805L10.0293 7.58789C9.82422 8.125 9.80469 8.62305 9.93164 9.08203L9.10156 9.91211C8.4375 10.5762 8.42773 11.5039 9.10156 12.168C9.76562 12.8223 10.6934 12.832 11.3574 12.168L13.252 10.2734C13.9258 9.58984 13.9355 8.65234 13.252 8.01758C12.9004 7.68555 12.5195 7.5293 12.1094 7.58789C12.2461 7.40234 12.3828 7.25586 12.4707 7.1582L12.9785 6.66016C13.2715 6.73828 13.6523 6.94336 13.9941 7.27539C15.0879 8.33008 15.0684 9.87305 13.9941 10.9375L12.0215 12.9004C10.9473 13.9648 9.43359 13.9648 8.35938 12.9004ZM16.6992 4.58008C17.7539 5.63477 17.7637 7.1582 16.6992 8.22266L15.0293 9.89258C15.2344 9.35547 15.2539 8.85742 15.127 8.38867L15.957 7.56836C16.6211 6.91406 16.6309 5.97656 15.957 5.3125C15.293 4.6582 14.375 4.64844 13.7012 5.32227L11.8164 7.20703C11.1426 7.88086 11.123 8.82812 11.8066 9.46289C12.1387 9.77539 12.5098 9.93164 12.8809 9.93164C12.793 10.0781 12.7637 10.127 12.5977 10.3223L12.0898 10.8203C11.8164 10.7422 11.4258 10.5371 11.0742 10.2051C9.99023 9.15039 10 7.60742 11.0645 6.54297L13.0371 4.57031C14.1113 3.50586 15.625 3.50586 16.6992 4.58008Z" fill="#000000" fill-opacity="0.85"/>
 </g>
</svg>
