<?xml version="1.0" encoding="UTF-8"?>
<!--Generator: Apple Native CoreSVG 175.5-->
<!DOCTYPE svg
PUBLIC "-//W3C//DTD SVG 1.1//EN"
       "http://www.w3.org/Graphics/SVG/1.1/DTD/svg11.dtd">
<svg version="1.1" xmlns="http://www.w3.org/2000/svg" xmlns:xlink="http://www.w3.org/1999/xlink" width="14.8047" height="20.2441">
 <g>
  <rect height="20.2441" opacity="0" width="14.8047" x="0" y="0"/>
  <path d="M14.8047 9.20898C14.8047 8.97461 14.7266 8.76953 14.541 8.57422L8.05664 2.08008C7.87109 1.88477 7.64648 1.78711 7.40234 1.78711C7.1582 1.78711 6.93359 1.88477 6.74805 2.08008L0.273438 8.57422C0.0878906 8.76953 0 8.97461 0 9.20898C0 9.6875 0.351562 10.0586 0.839844 10.0586C1.07422 10.0586 1.30859 9.98047 1.45508 9.82422L3.68164 7.63672L7.1875 3.79883L6.63086 3.60352L6.5332 6.51367L6.5332 19.3848C6.5332 19.8926 6.89453 20.2441 7.40234 20.2441C7.91016 20.2441 8.27148 19.8926 8.27148 19.3848L8.27148 6.51367L8.17383 3.60352L7.62695 3.79883L11.123 7.63672L13.3496 9.82422C13.5059 9.98047 13.7305 10.0586 13.9648 10.0586C14.4531 10.0586 14.8047 9.6875 14.8047 9.20898ZM14.8047 0.917969C14.8047 0.410156 14.4629 0.0390625 13.9648 0.0390625L0.859375 0.0390625C0.351562 0.0390625 0 0.410156 0 0.917969C0 1.42578 0.351562 1.78711 0.859375 1.78711L13.9648 1.78711C14.4629 1.78711 14.8047 1.42578 14.8047 0.917969Z" fill="#000000" fill-opacity="0.85"/>
 </g>
</svg>
