<?xml version="1.0" encoding="UTF-8"?>
<!--Generator: Apple Native CoreSVG 175.5-->
<!DOCTYPE svg
PUBLIC "-//W3C//DTD SVG 1.1//EN"
       "http://www.w3.org/Graphics/SVG/1.1/DTD/svg11.dtd">
<svg version="1.1" xmlns="http://www.w3.org/2000/svg" xmlns:xlink="http://www.w3.org/1999/xlink" width="17.9785" height="17.998">
 <g>
  <rect height="17.998" opacity="0" width="17.9785" x="0" y="0"/>
  <path d="M3.06641 17.998L14.9121 17.998C16.9629 17.998 17.9785 16.9824 17.9785 14.9707L17.9785 3.04688C17.9785 1.03516 16.9629 0.0195312 14.9121 0.0195312L3.06641 0.0195312C1.02539 0.0195312 0 1.02539 0 3.04688L0 14.9707C0 16.9922 1.02539 17.998 3.06641 17.998ZM3.08594 16.4258C2.10938 16.4258 1.57227 15.9082 1.57227 14.8926L1.57227 3.125C1.57227 2.10938 2.10938 1.5918 3.08594 1.5918L14.8926 1.5918C15.8594 1.5918 16.4062 2.10938 16.4062 3.125L16.4062 14.8926C16.4062 15.9082 15.8594 16.4258 14.8926 16.4258ZM7.29492 14.4629L11.2695 14.4629C11.6699 14.4629 11.9824 14.1699 11.9824 13.7695C11.9824 13.3887 11.6699 13.0859 11.2695 13.0859L10.0586 13.0859L10.0586 8.11523C10.0586 7.58789 9.79492 7.23633 9.29688 7.23633L7.46094 7.23633C7.06055 7.23633 6.74805 7.53906 6.74805 7.91992C6.74805 8.32031 7.06055 8.61328 7.46094 8.61328L8.50586 8.61328L8.50586 13.0859L7.29492 13.0859C6.89453 13.0859 6.58203 13.3887 6.58203 13.7695C6.58203 14.1699 6.89453 14.4629 7.29492 14.4629ZM8.91602 5.61523C9.62891 5.61523 10.1855 5.04883 10.1855 4.33594C10.1855 3.62305 9.62891 3.05664 8.91602 3.05664C8.21289 3.05664 7.64648 3.62305 7.64648 4.33594C7.64648 5.04883 8.21289 5.61523 8.91602 5.61523Z" fill="#000000" fill-opacity="0.85"/>
 </g>
</svg>
