<?xml version="1.0" encoding="UTF-8"?>
<!--Generator: Apple Native CoreSVG 175.5-->
<!DOCTYPE svg
PUBLIC "-//W3C//DTD SVG 1.1//EN"
       "http://www.w3.org/Graphics/SVG/1.1/DTD/svg11.dtd">
<svg version="1.1" xmlns="http://www.w3.org/2000/svg" xmlns:xlink="http://www.w3.org/1999/xlink" width="21.6895" height="18.1543">
 <g>
  <rect height="18.1543" opacity="0" width="21.6895" x="0" y="0"/>
  <path d="M0 16.5137C0 17.3145 0.527344 17.627 1.10352 17.627C1.43555 17.627 1.71875 17.4316 2.08984 17.207C3.16406 16.4746 4.49219 16.0254 5.84961 16.0352C7.25586 16.0449 8.65234 16.5625 9.74609 17.6172C10.1758 18.0078 10.4883 18.1348 10.8496 18.1348C11.2012 18.1348 11.5234 18.0078 11.9434 17.6172C13.0371 16.5723 14.4336 16.0449 15.8496 16.0352C17.207 16.0254 18.5254 16.4746 19.5996 17.207C19.9707 17.4316 20.2539 17.627 20.5957 17.627C21.1621 17.627 21.6895 17.3145 21.6895 16.5137L21.6895 3.26172C21.6895 3.0957 21.6797 2.95898 21.5723 2.79297C20.7031 1.2793 18.4961 0 15.8105 0C13.6816 0 11.8359 0.849609 10.8496 2.05078C9.86328 0.849609 8.00781 0 5.88867 0C3.19336 0 0.986328 1.2793 0.117188 2.79297C0.0195312 2.95898 0 3.0957 0 3.26172ZM1.57227 15.6836L1.57227 3.48633C2.36328 2.34375 4.08203 1.57227 5.88867 1.57227C7.74414 1.57227 9.36523 2.35352 10.0586 3.54492L10.0586 15.8496C9.0625 15.0586 7.50977 14.4629 5.88867 14.4629C4.18945 14.4629 2.60742 14.9414 1.57227 15.6836ZM11.6309 15.8496L11.6309 3.54492C12.3242 2.35352 13.9551 1.57227 15.8105 1.57227C17.6074 1.57227 19.3262 2.34375 20.1172 3.48633L20.1172 15.6836C19.082 14.9414 17.5 14.4629 15.8105 14.4629C14.1797 14.4629 12.627 15.0586 11.6309 15.8496Z" fill="#000000" fill-opacity="0.85"/>
 </g>
</svg>
