<?xml version="1.0" encoding="UTF-8"?>
<!--Generator: Apple Native CoreSVG 175.5-->
<!DOCTYPE svg
PUBLIC "-//W3C//DTD SVG 1.1//EN"
       "http://www.w3.org/Graphics/SVG/1.1/DTD/svg11.dtd">
<svg version="1.1" xmlns="http://www.w3.org/2000/svg" xmlns:xlink="http://www.w3.org/1999/xlink" width="23.3691" height="20.4199">
 <g>
  <rect height="20.4199" opacity="0" width="23.3691" x="0" y="0"/>
  <path d="M3.06641 18.6328L18.7891 18.6328C20.5469 18.6328 21.5625 17.6172 21.5625 15.6055L21.5625 7.83203C21.0938 8.00781 20.5957 8.0957 20.0684 8.10547L20.0684 15.6152C20.0684 16.6211 19.5117 17.1387 18.5547 17.1387L3.00781 17.1387C2.03125 17.1387 1.49414 16.6211 1.49414 15.6055L1.49414 4.82422C1.49414 3.81836 2.03125 3.30078 3.00781 3.30078L15.2637 3.30078C15.2637 2.77344 15.3613 2.26562 15.5371 1.80664L2.77344 1.80664C1.01562 1.80664 0 2.8125 0 4.82422L0 15.6055C0 17.627 1.02539 18.6328 3.06641 18.6328ZM10.8008 12.8223C11.4844 12.8223 12.1484 12.5391 12.832 11.8652L17.4219 7.35352C17.0215 7.09961 16.6602 6.76758 16.3574 6.39648L11.9824 10.7129C11.5625 11.1328 11.1816 11.3184 10.8008 11.3184C10.4102 11.3184 10.0391 11.1328 9.61914 10.7129L1.80664 2.99805L0.78125 4.01367L8.76953 11.8652C9.45312 12.5391 10.1074 12.8223 10.8008 12.8223ZM19.8145 17.5293L20.8301 16.5039L13.7793 9.53125L12.7637 10.5469ZM1.91406 17.3926L8.61328 10.7617L7.59766 9.74609L0.908203 16.3672ZM19.9805 6.77734C21.8359 6.77734 23.3691 5.24414 23.3691 3.38867C23.3691 1.5332 21.8359 0 19.9805 0C18.125 0 16.6016 1.5332 16.6016 3.38867C16.6016 5.24414 18.125 6.77734 19.9805 6.77734Z" fill="#000000" fill-opacity="0.85"/>
 </g>
</svg>
