<?xml version="1.0" encoding="UTF-8"?>
<!--Generator: Apple Native CoreSVG 175.5-->
<!DOCTYPE svg
PUBLIC "-//W3C//DTD SVG 1.1//EN"
       "http://www.w3.org/Graphics/SVG/1.1/DTD/svg11.dtd">
<svg version="1.1" xmlns="http://www.w3.org/2000/svg" xmlns:xlink="http://www.w3.org/1999/xlink" width="17.8125" height="22.4707">
 <g>
  <rect height="22.4707" opacity="0" width="17.8125" x="0" y="0"/>
  <path d="M3.06641 15.7617L14.7461 15.7617C16.7871 15.7617 17.8125 14.7461 17.8125 12.7441L17.8125 4.16992C17.8125 2.1582 16.7871 1.14258 14.7461 1.14258L3.06641 1.14258C1.01562 1.14258 0 2.1582 0 4.16992L0 12.7441C0 14.7461 1.01562 15.7617 3.06641 15.7617ZM3.08594 14.1895C2.12891 14.1895 1.57227 13.6719 1.57227 12.6562L1.57227 4.25781C1.57227 3.24219 2.12891 2.71484 3.08594 2.71484L14.7168 2.71484C15.6836 2.71484 16.2402 3.24219 16.2402 4.25781L16.2402 12.6562C16.2402 13.6719 15.6836 14.1895 14.7168 14.1895ZM8.11523 20.2539L9.6875 20.2539L9.6875 14.7559L8.11523 14.7559ZM0.78125 21.0352L17.0215 21.0352C17.4512 21.0352 17.8125 20.6836 17.8125 20.2539C17.8125 19.8145 17.4512 19.4629 17.0215 19.4629L0.78125 19.4629C0.351562 19.4629 0 19.8145 0 20.2539C0 20.6836 0.351562 21.0352 0.78125 21.0352ZM8.90625 22.4707C10.1172 22.4707 11.1133 21.4746 11.1133 20.2637C11.1133 19.0527 10.1172 18.0566 8.90625 18.0566C7.69531 18.0566 6.69922 19.0527 6.69922 20.2637C6.69922 21.4746 7.69531 22.4707 8.90625 22.4707Z" fill="#000000" fill-opacity="0.85"/>
 </g>
</svg>
