<?xml version="1.0" encoding="UTF-8" ?>
<!DOCTYPE svg PUBLIC "-//W3C//DTD SVG 1.1//EN" "http://www.w3.org/Graphics/SVG/1.1/DTD/svg11.dtd">
<svg width="512pt" height="512pt" viewBox="0 0 512 512" version="1.1" xmlns="http://www.w3.org/2000/svg">
<path fill="#f8f8f8" stroke="#f8f8f8" stroke-width="0.09375" opacity="1.00" d=" M 212.99 35.55 C 229.70 31.71 246.95 30.99 264.04 31.33 C 305.72 32.75 346.82 46.32 381.43 69.54 C 418.38 94.37 447.69 130.38 464.33 171.68 C 473.85 194.94 479.30 219.86 480.62 244.96 C 480.73 257.65 481.16 270.44 479.12 283.02 C 474.29 324.76 457.06 364.93 430.62 397.55 C 419.85 410.68 407.88 422.99 394.15 433.05 C 393.69 429.04 393.65 425.02 393.69 421.00 C 393.55 368.33 393.67 315.67 393.62 263.00 C 394.95 225.72 381.03 187.84 355.13 160.87 C 345.52 150.59 334.05 142.20 321.84 135.26 C 303.22 125.01 282.17 119.81 261.05 118.39 C 249.71 117.86 238.41 119.49 227.28 121.49 C 217.85 123.24 208.95 126.82 200.00 130.10 C 199.86 128.07 199.72 126.05 199.69 124.01 C 199.83 98.68 199.61 73.34 199.84 48.00 C 199.89 44.92 200.02 41.80 199.46 38.76 L 199.32 38.16 C 203.93 37.58 208.37 36.08 212.99 35.55 Z" />
<path fill="#f8f8f8" stroke="#f8f8f8" stroke-width="0.09375" opacity="1.00" d=" M 110.03 85.04 C 112.58 82.85 115.06 80.52 118.09 79.00 C 118.64 86.66 118.32 94.33 118.40 101.99 C 118.40 152.33 118.43 202.66 118.38 253.00 C 117.16 285.41 128.45 317.99 148.94 343.07 C 170.14 369.57 201.61 387.54 235.16 392.54 C 245.02 394.38 255.09 393.48 265.05 393.63 C 280.90 392.52 296.86 389.30 311.23 382.32 C 312.22 384.04 312.33 386.04 312.32 387.99 C 312.15 414.66 312.43 441.33 312.11 468.01 C 312.16 469.75 312.17 471.52 312.54 473.25 L 312.67 473.87 C 298.41 477.02 284.01 479.87 269.37 480.49 C 224.21 483.25 178.34 471.82 139.68 448.33 C 86.60 416.57 47.81 361.83 35.89 301.09 C 34.39 296.26 33.96 291.22 33.42 286.22 C 30.75 272.05 31.20 257.56 31.44 243.21 C 33.18 217.19 39.11 191.38 49.32 167.36 C 62.94 135.78 83.79 107.31 110.03 85.04 Z" />
<path fill="#f8f8f8" stroke="#f8f8f8" stroke-width="0.09375" opacity="1.00" d=" M 247.31 201.10 C 261.02 199.02 275.54 202.09 287.04 209.91 C 298.43 217.21 306.54 229.15 310.04 242.14 C 312.21 248.55 311.21 255.38 311.43 262.01 C 309.56 285.76 290.21 306.77 266.82 311.00 C 263.57 311.53 260.32 312.20 257.03 312.43 C 242.81 312.01 228.22 307.22 218.04 296.95 C 208.32 288.29 202.11 275.94 200.61 263.04 C 200.76 255.79 199.72 248.32 202.19 241.34 C 206.67 224.96 218.97 210.91 234.79 204.65 C 238.87 203.16 243.02 201.84 247.31 201.10 Z" />
</svg>
