<?xml version="1.0" standalone="no"?><!-- Generator: Gravit.io --><svg xmlns="http://www.w3.org/2000/svg" xmlns:xlink="http://www.w3.org/1999/xlink" style="isolation:isolate" viewBox="0 0 16 16" width="16" height="16"><defs><clipPath id="_clipPath_tVGK5IW6kYG0BiHrnDUrmB5reeJhLnhu"><rect width="16" height="16"/></clipPath></defs><g clip-path="url(#_clipPath_tVGK5IW6kYG0BiHrnDUrmB5reeJhLnhu)"><path d=" M 13.727 10.932 L 2.273 10.932 L 2.273 3.295 L 13.727 3.295 M 13.727 2.023 L 2.273 2.023 C 1.566 2.023 1 2.589 1 3.295 L 1 10.932 C 1 11.635 1.57 12.205 2.273 12.205 L 6.727 12.205 L 6.727 13.477 L 5.455 13.477 L 5.455 14.75 L 10.545 14.75 L 10.545 13.477 L 9.273 13.477 L 9.273 12.205 L 13.727 12.205 C 14.43 12.205 15 11.635 15 10.932 L 15 3.295 C 15 2.589 14.427 2.023 13.727 2.023 Z " fill="#f8f8f8"/></g></svg>