<?xml version="1.0" encoding="UTF-8"?>
<!--Generator: Apple Native CoreSVG 175.5-->
<!DOCTYPE svg
PUBLIC "-//W3C//DTD SVG 1.1//EN"
       "http://www.w3.org/Graphics/SVG/1.1/DTD/svg11.dtd">
<svg version="1.1" xmlns="http://www.w3.org/2000/svg" xmlns:xlink="http://www.w3.org/1999/xlink" width="9.80469" height="21.6309">
 <g>
  <rect height="21.6309" opacity="0" width="9.80469" x="0" y="0"/>
  <path d="M0 19.4629C0 20.752 0.859375 21.5723 2.22656 21.5723L7.57812 21.5723C8.93555 21.5723 9.80469 20.752 9.80469 19.4629L9.80469 2.10938C9.80469 0.830078 8.93555 0 7.57812 0L2.22656 0C0.859375 0 0 0.830078 0 2.10938ZM1.44531 19.2578L1.44531 2.31445C1.44531 1.76758 1.80664 1.42578 2.39258 1.42578L7.41211 1.42578C7.99805 1.42578 8.35938 1.76758 8.35938 2.31445L8.35938 19.2578C8.35938 19.8047 7.99805 20.1465 7.41211 20.1465L2.39258 20.1465C1.80664 20.1465 1.44531 19.8047 1.44531 19.2578ZM3.33984 11.582C3.96484 11.582 4.47266 11.0645 4.47266 10.4395C4.47266 9.81445 3.96484 9.29688 3.33984 9.29688C2.70508 9.29688 2.1875 9.81445 2.1875 10.4395C2.1875 11.0645 2.70508 11.582 3.33984 11.582ZM6.48438 11.582C7.10938 11.582 7.61719 11.0645 7.61719 10.4395C7.61719 9.81445 7.10938 9.29688 6.48438 9.29688C5.84961 9.29688 5.33203 9.81445 5.33203 10.4395C5.33203 11.0645 5.84961 11.582 6.48438 11.582ZM4.90234 8.07617C6.40625 8.07617 7.61719 6.86523 7.61719 5.36133C7.61719 3.85742 6.40625 2.64648 4.90234 2.64648C3.4082 2.64648 2.1875 3.85742 2.1875 5.36133C2.1875 6.86523 3.4082 8.07617 4.90234 8.07617ZM4.91211 6.45508C4.30664 6.45508 3.80859 5.9668 3.80859 5.36133C3.80859 4.75586 4.30664 4.26758 4.91211 4.26758C5.51758 4.26758 6.00586 4.75586 6.00586 5.36133C6.00586 5.9668 5.51758 6.45508 4.91211 6.45508Z" fill="#000000" fill-opacity="0.85"/>
 </g>
</svg>
