<?xml version="1.0" encoding="UTF-8"?>
<!--Generator: Apple Native CoreSVG 175.5-->
<!DOCTYPE svg
PUBLIC "-//W3C//DTD SVG 1.1//EN"
       "http://www.w3.org/Graphics/SVG/1.1/DTD/svg11.dtd">
<svg version="1.1" xmlns="http://www.w3.org/2000/svg" xmlns:xlink="http://www.w3.org/1999/xlink" width="16.1133" height="14.4434">
 <g>
  <rect height="14.4434" opacity="0" width="16.1133" x="0" y="0"/>
  <path d="M8.05664 2.95898C8.85742 2.95898 9.50195 2.30469 9.50195 1.52344C9.50195 0.722656 8.85742 0.078125 8.05664 0.078125C7.26562 0.078125 6.62109 0.722656 6.62109 1.52344C6.62109 2.30469 7.26562 2.95898 8.05664 2.95898ZM8.05664 14.4434C8.85742 14.4434 9.50195 13.7988 9.50195 12.998C9.50195 12.207 8.85742 11.5625 8.05664 11.5625C7.26562 11.5625 6.62109 12.207 6.62109 12.998C6.62109 13.7988 7.26562 14.4434 8.05664 14.4434ZM0.869141 8.10547L15.2441 8.10547C15.7129 8.10547 16.1133 7.70508 16.1133 7.22656C16.1133 6.74805 15.7129 6.35742 15.2441 6.35742L0.869141 6.35742C0.400391 6.35742 0 6.74805 0 7.22656C0 7.70508 0.400391 8.10547 0.869141 8.10547Z" fill="#000000" fill-opacity="0.85"/>
 </g>
</svg>
