<?xml version="1.0" encoding="UTF-8"?>
<!--Generator: Apple Native CoreSVG 175.5-->
<!DOCTYPE svg
PUBLIC "-//W3C//DTD SVG 1.1//EN"
       "http://www.w3.org/Graphics/SVG/1.1/DTD/svg11.dtd">
<svg version="1.1" xmlns="http://www.w3.org/2000/svg" xmlns:xlink="http://www.w3.org/1999/xlink" width="26.2109" height="18.8748">
 <g>
  <rect height="18.8748" opacity="0" width="26.2109" x="0" y="0"/>
  <path d="M1.98242 13.4071L4.78516 13.4071C4.87305 13.4071 4.95117 13.4364 5.01953 13.495L9.42383 17.4403C9.89258 17.8602 10.2539 18.0555 10.7227 18.0555C11.3477 18.0555 11.8262 17.5966 11.8262 16.9618L11.8262 1.98133C11.8262 1.34656 11.3477 0.828982 10.7031 0.828982C10.2344 0.828982 9.93164 1.04383 9.42383 1.50281L5.01953 5.40906C4.95117 5.46765 4.87305 5.49695 4.78516 5.49695L1.98242 5.49695C0.654297 5.49695 0 6.17078 0 7.58679L0 11.327C0 12.743 0.664062 13.4071 1.98242 13.4071ZM2.05078 11.9813C1.68945 11.9813 1.52344 11.8153 1.52344 11.454L1.52344 7.45984C1.52344 7.08875 1.68945 6.92273 2.05078 6.92273L5.17578 6.92273C5.42969 6.92273 5.625 6.8739 5.84961 6.66883L10.0098 2.88953C10.0586 2.8407 10.1074 2.8114 10.1758 2.8114C10.2441 2.8114 10.3027 2.86023 10.3027 2.94812L10.3027 15.9266C10.3027 16.0145 10.2441 16.0731 10.1758 16.0731C10.127 16.0731 10.0684 16.0438 10.0098 15.995L5.84961 12.2352C5.625 12.0399 5.42969 11.9813 5.17578 11.9813ZM15.127 13.5927C15.4492 13.8173 15.9082 13.7489 16.1719 13.368C16.9238 12.3817 17.373 10.9266 17.373 9.4325C17.373 7.93836 16.9238 6.49304 16.1719 5.49695C15.9082 5.11609 15.4492 5.03797 15.127 5.27234C14.7266 5.54578 14.668 6.03406 14.9707 6.43445C15.5371 7.2157 15.8594 8.29969 15.8594 9.4325C15.8594 10.5653 15.5273 11.6395 14.9707 12.4305C14.6777 12.8407 14.7266 13.3095 15.127 13.5927ZM18.7402 16.1415C19.1016 16.3856 19.5508 16.2977 19.8145 15.9266C21.0645 14.2079 21.7969 11.8446 21.7969 9.4325C21.7969 7.02039 21.0742 4.63758 19.8145 2.93836C19.5508 2.56726 19.1016 2.47937 18.7402 2.72351C18.3789 2.96765 18.3203 3.42664 18.6035 3.82703C19.668 5.33094 20.2832 7.35242 20.2832 9.4325C20.2832 11.5126 19.6484 13.5145 18.6035 15.038C18.3301 15.4384 18.3789 15.8973 18.7402 16.1415ZM22.4023 18.7294C22.7344 18.9735 23.2129 18.8759 23.4766 18.4852C25.1855 16.0145 26.2109 12.8798 26.2109 9.4325C26.2109 5.97547 25.1562 2.86023 23.4766 0.379764C23.2129-0.020627 22.7344-0.108518 22.4023 0.135623C22.0312 0.389529 21.9824 0.848514 22.2461 1.2489C23.7598 3.48523 24.7168 6.29773 24.7168 9.4325C24.7168 12.5575 23.7598 15.3895 22.2461 17.6161C21.9824 18.0165 22.0312 18.4755 22.4023 18.7294Z" fill="#000000" fill-opacity="0.85"/>
 </g>
</svg>
