<?xml version="1.0" encoding="UTF-8"?>
<!--Generator: Apple Native CoreSVG 175.5-->
<!DOCTYPE svg
PUBLIC "-//W3C//DTD SVG 1.1//EN"
       "http://www.w3.org/Graphics/SVG/1.1/DTD/svg11.dtd">
<svg version="1.1" xmlns="http://www.w3.org/2000/svg" xmlns:xlink="http://www.w3.org/1999/xlink" width="19.9219" height="19.9316">
 <g>
  <rect height="19.9316" opacity="0" width="19.9219" x="0" y="0"/>
  <path d="M6.00586 14.8535C6.5332 14.8535 6.96289 14.4141 6.96289 13.8867C6.96289 13.3594 6.5332 12.9297 6.00586 12.9297C5.47852 12.9297 5.04883 13.3594 5.04883 13.8867C5.04883 14.4141 5.47852 14.8535 6.00586 14.8535ZM4.32617 10.918C4.86328 10.918 5.29297 10.4883 5.29297 9.96094C5.29297 9.43359 4.86328 9.00391 4.32617 9.00391C3.80859 9.00391 3.36914 9.43359 3.36914 9.96094C3.36914 10.4883 3.80859 10.918 4.32617 10.918ZM5.98633 6.99219C6.51367 6.99219 6.94336 6.55273 6.94336 6.03516C6.94336 5.49805 6.51367 5.07812 5.98633 5.07812C5.45898 5.07812 5.0293 5.49805 5.0293 6.03516C5.0293 6.55273 5.45898 6.99219 5.98633 6.99219ZM9.95117 5.27344C10.4688 5.27344 10.9082 4.83398 10.9082 4.31641C10.9082 3.7793 10.4688 3.34961 9.95117 3.34961C9.42383 3.34961 8.99414 3.7793 8.99414 4.31641C8.99414 4.83398 9.42383 5.27344 9.95117 5.27344ZM15.5762 10.918C16.0938 10.918 16.5332 10.4883 16.5332 9.96094C16.5332 9.43359 16.0938 9.00391 15.5762 9.00391C15.0391 9.00391 14.6191 9.43359 14.6191 9.96094C14.6191 10.4883 15.0391 10.918 15.5762 10.918ZM13.8965 14.8535C14.4238 14.8535 14.8535 14.4141 14.8535 13.8867C14.8535 13.3594 14.4238 12.9297 13.8965 12.9297C13.3691 12.9297 12.9395 13.3594 12.9395 13.8867C12.9395 14.4141 13.3691 14.8535 13.8965 14.8535ZM8.39844 11.4648C9.18945 12.2363 10.2734 12.0605 10.9277 11.1426L14.7461 5.81055C15.0977 5.32227 14.5801 4.81445 14.0918 5.15625L8.71094 8.92578C7.7832 9.57031 7.61719 10.6641 8.39844 11.4648ZM9.96094 19.9219C15.4102 19.9219 19.9219 15.4004 19.9219 9.96094C19.9219 4.51172 15.4004 0 9.95117 0C4.51172 0 0 4.51172 0 9.96094C0 15.4004 4.52148 19.9219 9.96094 19.9219ZM9.96094 18.2617C5.35156 18.2617 1.66992 14.5703 1.66992 9.96094C1.66992 5.35156 5.3418 1.66016 9.95117 1.66016C14.5605 1.66016 18.2617 5.35156 18.2617 9.96094C18.2617 14.5703 14.5703 18.2617 9.96094 18.2617Z" fill="#000000" fill-opacity="0.85" transform="scale (-1, 1)" transform-origin="center"/>
 </g>
</svg>
