<?xml version="1.0" encoding="UTF-8"?>
<!--Generator: Apple Native CoreSVG 175.5-->
<!DOCTYPE svg
PUBLIC "-//W3C//DTD SVG 1.1//EN"
       "http://www.w3.org/Graphics/SVG/1.1/DTD/svg11.dtd">
<svg version="1.1" xmlns="http://www.w3.org/2000/svg" xmlns:xlink="http://www.w3.org/1999/xlink" width="22.666" height="20.9473">
 <g>
  <rect height="20.9473" opacity="0" width="22.666" x="0" y="0"/>
  <path d="M3.02734 20.9375L13.3984 20.9375C15.4199 20.9375 16.4258 19.9219 16.4258 17.8809L16.4258 13.3496L14.8535 13.3496L14.8535 17.8516C14.8535 18.8281 14.3359 19.3652 13.3203 19.3652L3.10547 19.3652C2.08984 19.3652 1.57227 18.8281 1.57227 17.8516L1.57227 3.0957C1.57227 2.11914 2.08984 1.57227 3.10547 1.57227L13.3203 1.57227C14.3359 1.57227 14.8535 2.11914 14.8535 3.0957L14.8535 7.58789L16.4258 7.58789L16.4258 3.06641C16.4258 1.03516 15.4199 0 13.3984 0L3.02734 0C1.00586 0 0 1.03516 0 3.06641L0 17.8809C0 19.9219 1.00586 20.9375 3.02734 20.9375ZM9.0332 11.2402L19.0625 11.2402L20.5273 11.1816L19.834 11.8457L18.2617 13.3203C18.1055 13.457 18.0273 13.6621 18.0273 13.8477C18.0273 14.2578 18.3105 14.5605 18.7109 14.5605C18.916 14.5605 19.0723 14.4824 19.2285 14.3359L22.4121 11.0352C22.6074 10.8398 22.666 10.6641 22.666 10.4688C22.666 10.2637 22.6074 10.0977 22.4121 9.90234L19.2285 6.60156C19.0723 6.45508 18.916 6.36719 18.7109 6.36719C18.3105 6.36719 18.0273 6.66016 18.0273 7.07031C18.0273 7.26562 18.1055 7.4707 18.2617 7.60742L19.834 9.0918L20.5273 9.75586L19.0625 9.6875L9.0332 9.6875C8.62305 9.6875 8.28125 10.0488 8.28125 10.4688C8.28125 10.8887 8.62305 11.2402 9.0332 11.2402Z" fill="#000000" fill-opacity="0.85"/>
 </g>
</svg>
