<?xml version="1.0" encoding="UTF-8"?>
<!--Generator: Apple Native CoreSVG 175.5-->
<!DOCTYPE svg
PUBLIC "-//W3C//DTD SVG 1.1//EN"
       "http://www.w3.org/Graphics/SVG/1.1/DTD/svg11.dtd">
<svg version="1.1" xmlns="http://www.w3.org/2000/svg" xmlns:xlink="http://www.w3.org/1999/xlink" width="21.8189" height="22.8003">
 <g>
  <rect height="22.8003" opacity="0" width="21.8189" x="0" y="0"/>
  <path d="M11.5161 21.7468L21.0376 12.2058C21.77 11.4734 21.8189 11.0535 21.8189 10.0281L21.8189 6.31714C21.8189 5.28199 21.5747 4.95972 20.8325 4.21753L18.5864 1.97144C17.854 1.23902 17.5318 0.985111 16.4966 0.985111L12.7759 0.985111C11.7505 0.985111 11.3403 1.03394 10.6079 1.76636L1.05714 11.2976C-0.339343 12.6941-0.36864 14.1394 1.06691 15.5652L7.24855 21.7371C8.68409 23.1628 10.1196 23.1433 11.5161 21.7468ZM10.4614 20.5652C9.75831 21.2683 9.01613 21.2781 8.30324 20.5554L2.23878 14.5007C1.52589 13.7878 1.53566 13.0359 2.22902 12.3425L11.7114 2.87964C11.9068 2.68433 12.1118 2.55738 12.4439 2.55738L16.5552 2.55738C16.8579 2.55738 17.063 2.67456 17.2681 2.87964L19.9341 5.53589C20.1392 5.74097 20.2466 5.94605 20.2466 6.24878L20.2466 10.3699C20.2466 10.6921 20.1294 10.8972 19.9341 11.0925ZM15.354 8.79761C16.1157 8.79761 16.6919 8.20191 16.6919 7.45972C16.6919 6.70777 16.1157 6.12183 15.354 6.12183C14.5825 6.12183 14.0161 6.70777 14.0161 7.45972C14.0161 8.20191 14.5825 8.79761 15.354 8.79761Z" fill="#000000" fill-opacity="0.85"/>
 </g>
</svg>
