<?xml version="1.0" encoding="UTF-8"?>
<!--Generator: Apple Native CoreSVG 175.5-->
<!DOCTYPE svg
PUBLIC "-//W3C//DTD SVG 1.1//EN"
       "http://www.w3.org/Graphics/SVG/1.1/DTD/svg11.dtd">
<svg version="1.1" xmlns="http://www.w3.org/2000/svg" xmlns:xlink="http://www.w3.org/1999/xlink" width="19.9219" height="19.9316">
 <g>
  <rect height="19.9316" opacity="0" width="19.9219" x="0" y="0"/>
  <path d="M9.96094 19.9219C15.4102 19.9219 19.9219 15.4004 19.9219 9.96094C19.9219 4.51172 15.4004 0 9.95117 0C4.51172 0 0 4.51172 0 9.96094C0 15.4004 4.52148 19.9219 9.96094 19.9219ZM9.96094 18.2617C5.35156 18.2617 1.66992 14.5703 1.66992 9.96094C1.66992 5.35156 5.3418 1.66016 9.95117 1.66016C14.5605 1.66016 18.2617 5.35156 18.2617 9.96094C18.2617 14.5703 14.5703 18.2617 9.96094 18.2617ZM7.05078 14.4336C7.36328 14.4336 7.5293 14.3262 7.7832 13.9844L9.89258 10.9766L9.93164 10.9766L12.041 13.9844C12.2852 14.3262 12.4609 14.4336 12.7637 14.4336C13.2031 14.4336 13.5352 14.1406 13.5352 13.7207C13.5352 13.5254 13.4766 13.3789 13.3496 13.2129L10.8984 9.86328L13.3691 6.50391C13.5059 6.32812 13.5547 6.17188 13.5547 5.98633C13.5547 5.60547 13.2324 5.30273 12.8223 5.30273C12.5195 5.30273 12.3242 5.41992 12.1094 5.74219L10.0684 8.75L10.0195 8.75L7.93945 5.73242C7.71484 5.41992 7.5293 5.30273 7.19727 5.30273C6.77734 5.30273 6.43555 5.63477 6.43555 6.02539C6.43555 6.24023 6.48438 6.37695 6.64062 6.5918L8.98438 9.81445L6.49414 13.252C6.37695 13.4277 6.32812 13.5645 6.32812 13.7598C6.32812 14.1406 6.64062 14.4336 7.05078 14.4336Z" fill="#000000" fill-opacity="0.85"/>
 </g>
</svg>
