<?xml version="1.0" encoding="UTF-8"?>
<!--Generator: Apple Native CoreSVG 175.5-->
<!DOCTYPE svg
PUBLIC "-//W3C//DTD SVG 1.1//EN"
       "http://www.w3.org/Graphics/SVG/1.1/DTD/svg11.dtd">
<svg version="1.1" xmlns="http://www.w3.org/2000/svg" xmlns:xlink="http://www.w3.org/1999/xlink" width="19.9219" height="19.9316">
 <g>
  <rect height="19.9316" opacity="0" width="19.9219" x="0" y="0"/>
  <path d="M9.96094 19.9219C15.4102 19.9219 19.9219 15.4004 19.9219 9.96094C19.9219 4.51172 15.4004 0 9.95117 0C4.51172 0 0 4.51172 0 9.96094C0 15.4004 4.52148 19.9219 9.96094 19.9219ZM9.96094 18.2617C5.35156 18.2617 1.66992 14.5703 1.66992 9.96094C1.66992 5.35156 5.3418 1.66016 9.95117 1.66016C14.5605 1.66016 18.2617 5.35156 18.2617 9.96094C18.2617 14.5703 14.5703 18.2617 9.96094 18.2617ZM8.88672 14.5996C9.20898 14.5996 9.48242 14.4434 9.67773 14.1406L14.1406 7.11914C14.248 6.92383 14.375 6.70898 14.375 6.49414C14.375 6.05469 13.9844 5.77148 13.5742 5.77148C13.3301 5.77148 13.0859 5.92773 12.9004 6.21094L8.84766 12.7148L6.92383 10.2246C6.68945 9.91211 6.47461 9.83398 6.20117 9.83398C5.78125 9.83398 5.44922 10.1758 5.44922 10.6055C5.44922 10.8203 5.53711 11.0254 5.67383 11.2109L8.05664 14.1406C8.30078 14.4629 8.56445 14.5996 8.88672 14.5996Z" fill="#000000" fill-opacity="0.85"/>
 </g>
</svg>
