<?xml version="1.0" encoding="UTF-8"?>
<!--Generator: Apple Native CoreSVG 175.5-->
<!DOCTYPE svg
PUBLIC "-//W3C//DTD SVG 1.1//EN"
       "http://www.w3.org/Graphics/SVG/1.1/DTD/svg11.dtd">
<svg version="1.1" xmlns="http://www.w3.org/2000/svg" xmlns:xlink="http://www.w3.org/1999/xlink" width="20.5957" height="24.6191">
 <g>
  <rect height="24.6191" opacity="0" width="20.5957" x="0" y="0"/>
  <path d="M4.16992 13.3984C4.43359 13.3691 4.6875 13.3496 4.94141 13.3496C5.20508 13.3496 5.45898 13.3691 5.74219 13.3984L5.74219 4.93164C5.74219 3.96484 6.25977 3.4082 7.27539 3.4082L11.6211 3.4082L11.6211 9.08203C11.6211 10.3125 12.2363 10.918 13.457 10.918L19.0234 10.918L19.0234 19.6875C19.0234 20.6641 18.5059 21.2012 17.4902 21.2012L11.0352 21.2012C10.9082 21.7578 10.6934 22.2949 10.4102 22.7734L17.5684 22.7734C19.5898 22.7734 20.5957 21.748 20.5957 19.7168L20.5957 10.8496C20.5957 9.58984 20.4492 9.04297 19.668 8.24219L14.2871 2.76367C13.5449 2.00195 12.9297 1.83594 11.8359 1.83594L7.19727 1.83594C5.18555 1.83594 4.16992 2.87109 4.16992 4.90234ZM13.0957 8.89648L13.0957 3.71094L18.7207 9.44336L13.6328 9.44336C13.2422 9.44336 13.0957 9.28711 13.0957 8.89648ZM4.96094 24.6191C7.64648 24.6191 9.92188 22.3633 9.92188 19.6582C9.92188 16.9336 7.68555 14.6973 4.96094 14.6973C2.23633 14.6973 0 16.9336 0 19.6582C0 22.3828 2.23633 24.6191 4.96094 24.6191ZM4.96094 22.7637C4.59961 22.7637 4.36523 22.5195 4.36523 22.168L4.36523 20.2539L2.45117 20.2539C2.09961 20.2539 1.85547 20.0195 1.85547 19.6582C1.85547 19.2969 2.09961 19.0527 2.45117 19.0527L4.36523 19.0527L4.36523 17.1484C4.36523 16.7969 4.59961 16.5527 4.96094 16.5527C5.32227 16.5527 5.55664 16.7969 5.55664 17.1484L5.55664 19.0527L7.46094 19.0527C7.82227 19.0527 8.06641 19.2969 8.06641 19.6582C8.06641 20.0195 7.82227 20.2539 7.46094 20.2539L5.55664 20.2539L5.55664 22.168C5.55664 22.5195 5.32227 22.7637 4.96094 22.7637Z" fill="#000000" fill-opacity="0.85"/>
 </g>
</svg>
