<?xml version="1.0" encoding="UTF-8"?>
<!--Generator: Apple Native CoreSVG 175.5-->
<!DOCTYPE svg
PUBLIC "-//W3C//DTD SVG 1.1//EN"
       "http://www.w3.org/Graphics/SVG/1.1/DTD/svg11.dtd">
<svg version="1.1" xmlns="http://www.w3.org/2000/svg" xmlns:xlink="http://www.w3.org/1999/xlink" width="26.8945" height="15.3613">
 <g>
  <rect height="15.3613" opacity="0" width="26.8945" x="0" y="0"/>
  <path d="M1.40625 15.3613C1.80664 15.3613 2.13867 15.2344 2.5293 15L12.4805 9.14062C13.1738 8.73047 13.4766 8.25195 13.4766 7.68555C13.4766 7.12891 13.1738 6.65039 12.4805 6.24023L2.5293 0.380859C2.12891 0.146484 1.80664 0.0195312 1.40625 0.0195312C0.644531 0.0195312 0 0.605469 0 1.68945L0 13.6914C0 14.7754 0.644531 15.3613 1.40625 15.3613ZM1.83594 13.5547C1.68945 13.5547 1.57227 13.4668 1.57227 13.2617L1.57227 2.11914C1.57227 1.91406 1.68945 1.82617 1.83594 1.82617C1.9043 1.82617 1.97266 1.85547 2.07031 1.9043L11.3574 7.41211C11.4941 7.49023 11.5723 7.55859 11.5723 7.68555C11.5723 7.82227 11.4941 7.89062 11.3574 7.96875L2.07031 13.4766C1.98242 13.5352 1.9043 13.5547 1.83594 13.5547ZM14.8242 15.3613C15.2246 15.3613 15.5566 15.2344 15.9473 15L25.9082 9.14062C26.5918 8.73047 26.8945 8.25195 26.8945 7.68555C26.8945 7.12891 26.5918 6.65039 25.9082 6.24023L15.9473 0.380859C15.5566 0.146484 15.2246 0.0195312 14.8242 0.0195312C14.0625 0.0195312 13.418 0.605469 13.418 1.68945L13.418 13.6914C13.418 14.7754 14.0625 15.3613 14.8242 15.3613ZM15.2539 13.5547C15.1074 13.5547 14.9902 13.4668 14.9902 13.2617L14.9902 2.11914C14.9902 1.91406 15.1074 1.82617 15.2539 1.82617C15.3223 1.82617 15.3906 1.85547 15.4883 1.9043L24.7754 7.41211C24.9121 7.49023 24.9902 7.55859 24.9902 7.68555C24.9902 7.82227 24.9121 7.89062 24.7754 7.96875L15.4883 13.4766C15.4004 13.5352 15.3223 13.5547 15.2539 13.5547Z" fill="#000000" fill-opacity="0.85"/>
 </g>
</svg>
