<?xml version="1.0" encoding="UTF-8"?>
<svg width="22px" height="22px" viewBox="0 0 22 22" xmlns="http://www.w3.org/2000/svg" xmlns:xlink="http://www.w3.org/1999/xlink" version="1.1">
 <!-- Generated by Pixelmator Pro 1.1.3 -->
 <path id="path" d="M4.837 10.587 C5.285 11.025 6.013 11.025 6.462 10.587 L11 5.707 15.538 10.587 C15.987 11.025 16.714 11.025 17.163 10.587 17.612 10.149 17.612 9.439 17.163 9.001 L11.885 3.324 C11.642 3.087 11.318 2.983 11 3.002 10.682 2.983 10.358 3.088 10.115 3.324 L4.837 9.001 C4.388 9.439 4.388 10.149 4.837 10.587 Z M11.007 15.31 C9.961 15.31 9.113 16.136 9.113 17.155 9.113 18.174 9.961 19 11.007 19 12.053 19 12.901 18.174 12.901 17.155 12.901 16.136 12.053 15.31 11.007 15.31 Z M11.007 10.037 C9.961 10.037 9.113 10.863 9.113 11.882 9.113 12.902 9.961 13.728 11.007 13.728 12.053 13.728 12.901 12.902 12.901 11.882 12.901 10.863 12.053 10.037 11.007 10.037 Z" fill="#f8f8f8" fill-opacity="1" stroke="none"/>
</svg>
