<?xml version="1.0" encoding="UTF-8"?>
<!--Generator: Apple Native CoreSVG 175.5-->
<!DOCTYPE svg
PUBLIC "-//W3C//DTD SVG 1.1//EN"
       "http://www.w3.org/Graphics/SVG/1.1/DTD/svg11.dtd">
<svg version="1.1" xmlns="http://www.w3.org/2000/svg" xmlns:xlink="http://www.w3.org/1999/xlink" width="17.2559" height="23.3691">
 <g>
  <rect height="23.3691" opacity="0" width="17.2559" x="0" y="0"/>
  <path d="M0 12.3828C0 17.1777 3.84766 21.0254 8.63281 21.0254C13.418 21.0254 17.2559 17.1777 17.2559 12.3828C17.2559 11.9141 16.9238 11.5723 16.4453 11.5723C15.9863 11.5723 15.6836 11.9141 15.6836 12.3828C15.6836 16.3086 12.5488 19.4531 8.63281 19.4531C4.7168 19.4531 1.57227 16.3086 1.57227 12.3828C1.57227 8.4668 4.7168 5.33203 8.63281 5.33203C9.375 5.33203 10.0684 5.39062 10.6445 5.52734L7.72461 8.41797C7.57812 8.57422 7.5 8.76953 7.5 8.97461C7.5 9.42383 7.83203 9.75586 8.27148 9.75586C8.51562 9.75586 8.70117 9.67773 8.83789 9.53125L12.8613 5.48828C13.0371 5.32227 13.1055 5.12695 13.1055 4.90234C13.1055 4.6875 13.0176 4.47266 12.8613 4.31641L8.83789 0.234375C8.70117 0.078125 8.50586 0 8.27148 0C7.83203 0 7.5 0.351562 7.5 0.800781C7.5 1.00586 7.57812 1.20117 7.71484 1.35742L10.3125 3.92578C9.80469 3.82812 9.22852 3.75977 8.63281 3.75977C3.84766 3.75977 0 7.59766 0 12.3828Z" fill="#000000" fill-opacity="0.85"/>
 </g>
</svg>
