<?xml version="1.0" encoding="UTF-8"?>
<!--Generator: Apple Native CoreSVG 175.5-->
<!DOCTYPE svg
PUBLIC "-//W3C//DTD SVG 1.1//EN"
       "http://www.w3.org/Graphics/SVG/1.1/DTD/svg11.dtd">
<svg version="1.1" xmlns="http://www.w3.org/2000/svg" xmlns:xlink="http://www.w3.org/1999/xlink" width="20.3711" height="18.1738">
 <g>
  <rect height="18.1738" opacity="0" width="20.3711" x="0" y="0"/>
  <path d="M0 17.3926C0 17.832 0.361328 18.1738 0.78125 18.1738L19.5801 18.1738C20.0098 18.1738 20.3711 17.832 20.3711 17.3926C20.3711 16.9629 20.0098 16.6113 19.5801 16.6113L0.78125 16.6113C0.361328 16.6113 0 16.9629 0 17.3926ZM0.78125 14.3848C0.78125 14.8926 1.10352 15.1953 1.64062 15.1953L3.76953 15.1953C4.28711 15.1953 4.61914 14.8926 4.61914 14.3848L4.61914 6.30859C4.61914 5.81055 4.28711 5.48828 3.76953 5.48828L1.64062 5.48828C1.10352 5.48828 0.78125 5.81055 0.78125 6.30859ZM5.76172 14.3848C5.76172 14.8926 6.09375 15.1953 6.62109 15.1953L8.75 15.1953C9.27734 15.1953 9.60938 14.8926 9.60938 14.3848L9.60938 2.08008C9.60938 1.57227 9.27734 1.26953 8.75 1.26953L6.62109 1.26953C6.09375 1.26953 5.76172 1.57227 5.76172 2.08008ZM10.752 14.3848C10.752 14.8926 11.0742 15.1953 11.6016 15.1953L13.7402 15.1953C14.2578 15.1953 14.5898 14.8926 14.5898 14.3848L14.5898 4.18945C14.5898 3.67188 14.2578 3.36914 13.7402 3.36914L11.6016 3.36914C11.0742 3.36914 10.752 3.67188 10.752 4.18945ZM15.7324 14.3848C15.7324 14.8926 16.0547 15.1953 16.5918 15.1953L18.7207 15.1953C19.248 15.1953 19.5801 14.8926 19.5801 14.3848L19.5801 8.35938C19.5801 7.85156 19.248 7.53906 18.7207 7.53906L16.5918 7.53906C16.0547 7.53906 15.7324 7.85156 15.7324 8.35938Z" fill="#000000" fill-opacity="0.85"/>
 </g>
</svg>
